<svg width="140" height="71" viewBox="0 0 140 71" fill="none" xmlns="http://www.w3.org/2000/svg">
<path fill-rule="evenodd" clip-rule="evenodd" d="M26.2468 35.0151L17.498 43.7638H26.2468V52.5126L34.9955 43.7638L43.7443 35.0151L52.493 26.2663H43.7443V17.5176L34.9955 26.2663L26.2468 35.0151ZM34.9955 26.2663L43.7443 35.0151L52.493 43.7638H43.7443V52.5126L34.9955 43.7638L26.2468 35.0151L17.498 26.2663H26.2468V17.5176L34.9955 26.2663Z" fill="#EBEBEB"/>
<path fill-rule="evenodd" clip-rule="evenodd" d="M17.4975 8.76925H26.2462V17.518L34.995 8.76925L43.7437 0.0205078L52.4925 8.76925H61.2412V17.518L69.9899 26.2667L61.2412 35.0155L52.4925 43.7642H61.2412V52.513L69.9899 61.2617L61.2412 70.0104L52.4925 61.2617H43.7437V52.513L34.995 61.2617L26.2462 70.0104L17.4975 61.2617H8.74874V52.513L0 43.7642L8.74874 35.0155L17.4975 26.2667H8.74874V17.518L0 8.76925L8.74874 0.0205078L17.4975 8.76925ZM69.9899 8.76925L61.2412 0.0205078L52.4925 8.76925H43.7437V17.518L34.995 8.76925L26.2462 0.0205078L17.4975 8.76925H8.74874V17.518L0 26.2667L8.74874 35.0155L17.4975 43.7642H8.74874V52.513L0 61.2617L8.74874 70.0104L17.4975 61.2617H26.2462V52.513L34.995 61.2617L43.7437 70.0104L52.4925 61.2617H61.2412V52.513L69.9899 43.7642L61.2412 35.0155L52.4925 26.2667H61.2412V17.518L69.9899 8.76925Z" fill="url(#paint0_linear_532_2785)"/>
<path fill-rule="evenodd" clip-rule="evenodd" d="M104.986 11.1421L110.557 5.57103L104.986 0L99.4147 5.57103L104.986 11.1421ZM117.717 35.0151L104.986 47.746L99.4147 53.3171L104.986 58.8881L110.557 64.4591L104.986 70.0302L99.4147 64.4591L104.986 58.8881L110.557 53.3171L104.986 47.746L92.2549 35.0151L86.6838 40.5861L81.1128 35.0151L75.5417 40.5861L69.9707 35.0151L75.5417 29.444L81.1128 35.0151L86.6838 29.444L92.2549 35.0151L104.986 22.2842L99.4147 16.7131L104.986 11.1421L110.557 16.7131L104.986 22.2842L117.717 35.0151L123.288 29.444L128.859 35.0151L134.43 40.5861L140.001 35.0151L134.43 29.444L128.859 35.0151L123.288 40.5861L117.717 35.0151Z" fill="url(#paint1_linear_532_2785)"/>
<path fill-rule="evenodd" clip-rule="evenodd" d="M82.7212 70.01L99.4142 53.3171L86.6832 40.5861L69.9902 57.2992V70.0302H82.7212V70.01ZM127.249 0.0201163L110.556 16.7131L123.287 29.444L139.98 12.7309V0H127.249V0.0201163Z" fill="#EBEBEB"/>
<path fill-rule="evenodd" clip-rule="evenodd" d="M69.9908 12.7309L86.6838 29.4239L99.4147 16.693L82.7016 0H69.9707V12.7309H69.9908ZM139.981 57.2791L123.288 40.5861L110.557 53.3171L127.27 70.01H140.001V57.2791H139.981Z" fill="#EBEBEB"/>
<defs>
<linearGradient id="paint0_linear_532_2785" x1="6.1744" y1="6.19491" x2="65.2636" y2="65.264" gradientUnits="userSpaceOnUse">
<stop stop-color="#EAC781"/>
<stop offset="1" stop-color="#A87242"/>
</linearGradient>
<linearGradient id="paint1_linear_532_2785" x1="87.4079" y1="17.4371" x2="128.617" y2="58.6266" gradientUnits="userSpaceOnUse">
<stop stop-color="#EAC781"/>
<stop offset="1" stop-color="#A87242"/>
</linearGradient>
</defs>
</svg>
