<svg width="110" height="30" viewBox="0 0 110 30" fill="none" xmlns="http://www.w3.org/2000/svg">
<path fill-rule="evenodd" clip-rule="evenodd" d="M35.5485 20.0207V23.8134H41.7084V25.9895H33.2578V12H41.6156V14.2072H35.5485V17.8445H41.1203V20.0207H35.5485Z" fill="#EBEBEB"/>
<path fill-rule="evenodd" clip-rule="evenodd" d="M51.0868 20.8604C52.0773 21.3268 52.5726 22.104 52.5726 23.1609C52.5726 24.0003 52.294 24.7153 51.7059 25.2127C51.1177 25.7412 50.3439 25.9899 49.3224 25.9899H44.2148V16.0107H48.9199C49.9414 16.0107 50.7153 16.2594 51.2725 16.7569C51.8297 17.2543 52.1392 17.9382 52.1392 18.7465C52.1392 19.6791 51.7987 20.3941 51.1177 20.8294M48.7342 17.8449H46.2578V20.0522H48.7342C49.6009 20.0522 50.0343 19.6791 50.0343 18.933C50.0343 18.1869 49.6009 17.8449 48.7342 17.8449ZM46.2269 24.1247H49.0747C49.9724 24.1247 50.4367 23.7205 50.4367 22.9433C50.4367 22.6014 50.3129 22.3216 50.0653 22.135C49.8176 21.9485 49.5081 21.8553 49.0747 21.8553H46.2269V24.1247Z" fill="#EBEBEB"/>
<path fill-rule="evenodd" clip-rule="evenodd" d="M60.6204 15.7305C61.9824 15.7305 63.1277 16.2279 64.1182 17.2849C65.0778 18.2797 65.5731 19.5232 65.5731 21.0154C65.5731 22.5076 65.0778 23.7511 64.1182 24.7459C63.1586 25.7718 61.9824 26.2692 60.6204 26.2692C59.1345 26.2692 57.9583 25.7097 57.1534 24.5905V29.9998H55.0176V16.0103H57.1534V17.4403C57.9583 16.29 59.1345 15.7305 60.6204 15.7305ZM58.0202 23.2848C58.6083 23.8755 59.3512 24.1864 60.2799 24.1864C61.2085 24.1864 61.9205 23.8755 62.5395 23.2848C63.1277 22.6631 63.4372 21.9169 63.4372 20.9843C63.4372 20.0517 63.1277 19.3056 62.5395 18.7149C61.9514 18.0931 61.2085 17.7823 60.2799 17.7823C59.3512 17.7823 58.6393 18.0931 58.0202 18.7149C57.432 19.3056 57.1225 20.0828 57.1225 20.9843C57.1225 21.8859 57.432 22.6631 58.0202 23.2848Z" fill="#EBEBEB"/>
<path fill-rule="evenodd" clip-rule="evenodd" d="M76.0368 17.4092V15.9792H78.1727V25.9584H76.0368V24.5283C75.232 25.6475 74.0557 26.2382 72.5699 26.2382C71.2079 26.2382 70.0316 25.7407 69.0721 24.7148C68.1125 23.72 67.6172 22.4454 67.6172 20.9843C67.6172 19.5232 68.1125 18.2486 69.0721 17.2538C70.0316 16.2279 71.2079 15.7305 72.5699 15.7305C74.0867 15.7305 75.232 16.2901 76.0368 17.4092ZM70.6507 23.2848C71.2389 23.8755 71.9818 24.1864 72.9104 24.1864C73.8391 24.1864 74.551 23.8755 75.1701 23.2848C75.7583 22.6631 76.0678 21.9169 76.0678 20.9843C76.0678 20.0517 75.7583 19.3056 75.1701 18.7149C74.582 18.0931 73.8391 17.7823 72.9104 17.7823C71.9818 17.7823 71.2698 18.0931 70.6507 18.7149C70.0626 19.3056 69.7531 20.0828 69.7531 20.9843C69.7531 21.8859 70.0626 22.6631 70.6507 23.2848Z" fill="#EBEBEB"/>
<path fill-rule="evenodd" clip-rule="evenodd" d="M86.6224 20.891C87.6749 21.3574 88.2011 22.1656 88.2011 23.2537C88.2011 24.1242 87.8606 24.8392 87.1487 25.3988C86.4367 25.9584 85.4771 26.2382 84.2699 26.2382C82.2578 26.2382 80.9268 25.4299 80.2148 23.8444L81.9793 22.8185C82.3507 23.8133 83.1246 24.3107 84.3009 24.3107C84.858 24.3107 85.2914 24.1864 85.6009 23.9687C85.9105 23.72 86.0653 23.4092 86.0653 23.0361C86.0653 22.6941 85.9414 22.4143 85.6938 22.1967C85.4462 22.0102 85.1057 21.8859 84.6414 21.8859H83.2174V19.9895H84.2699C84.7033 19.9895 85.0438 19.8962 85.2914 19.6786C85.539 19.461 85.6629 19.1812 85.6629 18.8393C85.6629 18.4973 85.539 18.2175 85.2604 17.9999C84.9819 17.7823 84.6104 17.6579 84.1461 17.6579C83.1555 17.6579 82.4745 18.0931 82.0721 18.9636L80.3077 17.9688C81.0506 16.4766 82.2888 15.7305 84.0842 15.7305C85.1985 15.7305 86.0653 16.0103 86.7153 16.6009C87.3654 17.1605 87.7059 17.8444 87.7059 18.6527C87.7059 19.6475 87.3344 20.3936 86.5605 20.86" fill="#EBEBEB"/>
<path fill-rule="evenodd" clip-rule="evenodd" d="M92.5971 22.3527L97.6737 16.0107H99.3452V25.9899H97.2403V19.648L92.1328 25.9899H90.4922V16.0107H92.5971V22.3527Z" fill="#EBEBEB"/>
<path fill-rule="evenodd" clip-rule="evenodd" d="M105.443 16.0107H109.869V25.9899H107.764V22.6324H106.557L104.019 25.9899H101.48L104.174 22.4459C103.493 22.2283 102.935 21.8242 102.502 21.2335C102.1 20.6739 101.883 20.0211 101.883 19.3061C101.883 18.3734 102.192 17.5962 102.842 16.9745C103.493 16.3216 104.328 16.0107 105.381 16.0107M105.566 20.7672H107.764V17.9382H105.566C105.102 17.9382 104.762 18.0625 104.452 18.3423C104.174 18.591 104.019 18.933 104.019 19.3682C104.019 19.8035 104.174 20.1454 104.452 20.3941C104.731 20.6428 105.102 20.7672 105.566 20.7672Z" fill="#EBEBEB"/>
<path fill-rule="evenodd" clip-rule="evenodd" d="M1.59156 26.8278C-0.977672 24.092 4.12984 21.2941 10.6922 19.2734C-3.85645 25.4288 3.5417 29.3148 15.1806 28.1646C12.0233 28.693 4.87275 29.377 1.80824 27.0765C1.74633 27.0143 1.65347 26.921 1.59156 26.8589" fill="#EBEBEB"/>
<path fill-rule="evenodd" clip-rule="evenodd" d="M1.62109 19.4918C1.62109 19.4918 8.55493 8.08256 29.7588 5.75098C29.0159 6.90123 28.3349 8.11365 27.7468 9.35716C21.8345 10.1033 9.57643 12.4349 1.62109 19.5229" fill="#EBEBEB"/>
<path fill-rule="evenodd" clip-rule="evenodd" d="M5.14844 13.8652C5.14844 13.8652 12.949 1.67874 34.3696 0C33.3171 1.08807 32.3266 2.20723 31.3979 3.41966C27.0333 3.69945 14.0324 5.22275 5.14844 13.8652Z" fill="#EBEBEB"/>
<path fill-rule="evenodd" clip-rule="evenodd" d="M26.5078 12.2178C14.6213 14.1452 -6.64454 21.4509 2.02275 27.2021C-3.70386 22.3213 15.9833 17.0986 25.2697 16.1659C25.6102 14.8291 26.0126 13.5235 26.5078 12.2489" fill="#EBEBEB"/>
</svg>
