<svg width="78" height="57" viewBox="0 0 78 57" fill="none" xmlns="http://www.w3.org/2000/svg">
<path d="M0 30.0316C0 12.2579 9.83845 3.08496 20.2545 3.08496C30.6706 3.08496 40.2202 11.5414 40.2202 28.8149C40.2202 47.0911 30.3818 56.2641 20.4001 56.2641C9.54968 56.2641 0.00242922 47.7355 0.00242922 30.034L0 30.0316ZM20.7617 55.4009C26.1154 55.4009 32.0466 49.1662 32.0466 30.8178C32.0466 11.3947 25.8266 3.87121 19.8929 3.87121C13.9592 3.87121 8.17362 10.1059 8.17362 28.3821C8.17362 47.875 14.6849 55.4009 20.7593 55.4009H20.7617Z" fill="url(#paint0_linear_532_2495)"/>
<path d="M43.8359 49.0243C43.8359 47.0165 45.0663 45.4416 46.4399 44.5087C49.84 51.246 53.3128 55.473 59.1713 55.473C65.0297 55.473 69.8761 51.2435 69.8761 43.0035C69.8761 32.6836 62.5713 26.8072 48.248 26.1604L53.3128 4.15729H74.0017L75.8825 0H76.2441L74.1474 10.7503H53.024L49.9128 21.931C67.2017 22.2171 77.6178 28.3099 77.6178 39.8489C77.6178 49.4522 70.6745 56.2616 57.9433 56.2616C47.8888 56.2616 43.8384 52.7511 43.8384 49.0243H43.8359Z" fill="url(#paint1_linear_532_2495)"/>
<defs>
<linearGradient id="paint0_linear_532_2495" x1="-36.6697" y1="0.00245897" x2="76.1109" y2="0.00245897" gradientUnits="userSpaceOnUse">
<stop stop-color="#EAC781"/>
<stop offset="1" stop-color="#A87242"/>
</linearGradient>
<linearGradient id="paint1_linear_532_2495" x1="-36.6701" y1="28.132" x2="76.1107" y2="28.132" gradientUnits="userSpaceOnUse">
<stop stop-color="#EAC781"/>
<stop offset="1" stop-color="#A87242"/>
</linearGradient>
</defs>
</svg>
