<svg width="1260" height="1260" viewBox="0 0 1260 1260" fill="none" xmlns="http://www.w3.org/2000/svg">
<path d="M1259.46 802.496V457.459H1032.57L1259.96 230.069L1029.85 0L802.468 227.39V0.491315H457.443V227.39L230.106 0L0 230.114L227.382 457.504H0.446634V802.541H227.337L0 1029.89L230.106 1260L457.488 1032.61V1259.55H802.513V1032.61L1029.89 1260L1260 1029.89L1032.66 802.541H1259.55L1259.46 802.496ZM1257.23 459.737V800.308H1030.3L1025.52 795.529V711.737H1183.85V551.166H1025.52V464.561L1030.3 459.782H1257.19L1257.23 459.737ZM864.952 867.796H802.468V802.452H864.952V867.796ZM799.208 1026.13L754.812 981.737L788.488 948.06L710.417 869.985H800.235V1026.09H799.208V1026.13ZM628.548 1104.88L550.477 1026.8L506.841 983.166L629.933 860.025L751.596 981.737L628.504 1104.83L628.548 1104.88ZM706.62 1029.98V1184.52H550.521V1029.98L628.548 1108.05L706.62 1029.98ZM459.721 1026.13V870.03H546.68L468.653 948.104L503.714 983.166L460.748 1026.13H459.721ZM233.813 802.496H389.912V867.841H233.813V802.496ZM233.813 799.236L276.779 756.268L311.84 791.33L389.912 713.256V800.218H233.813V799.191V799.236ZM155.116 631.429L278.209 508.332L399.916 630L276.779 753.097L155.116 631.429ZM230.017 709.459H75.4812V553.355H230.017L151.945 631.429L229.972 709.459H230.017ZM233.813 459.737H389.912V549.558L311.84 471.484L278.164 505.161L233.768 460.764V459.737H233.813ZM233.813 395.017H389.912V457.504H233.813V395.017ZM463.562 236.68L505.099 278.263L468.609 314.754L546.636 392.784H459.676V236.68H463.517H463.562ZM459.721 234.447V232.839L461.329 234.447H459.721ZM628.548 157.98L750.212 279.648L629.933 399.931L508.27 278.218L549.673 236.814L628.504 157.98H628.548ZM550.477 78.3424H706.576V232.883L628.548 154.854L550.477 232.928V78.3424ZM800.235 236.68V392.784H710.417L788.444 314.71L753.383 279.648L796.349 236.68H800.19H800.235ZM798.582 234.447L800.19 232.839V234.447H798.582ZM867.185 395.017H1023.28V457.504H867.185V395.017ZM1023.28 463.623L980.318 506.591L945.257 471.529L867.185 549.558V459.737H1023.28V463.578V463.623ZM1025.52 459.737H1027.12L1025.52 461.345V459.737ZM1101.98 631.429L981.702 751.712L859.994 630L980.273 509.717L1101.94 631.385L1101.98 631.429ZM1027.08 553.355H1181.62V709.459H1027.08L1105.11 631.429L1027.04 553.355H1027.08ZM1023.28 793.251L983.31 753.275L1023.28 713.3V793.251ZM800.235 867.796H708.853V711.692H864.952V800.263H800.235V867.841V867.796ZM459.721 395.017H548.288V551.122H392.19V459.737H459.721V395.017ZM706.62 551.122H550.521V396.581L628.593 474.61L706.665 396.536V551.077L706.62 551.122ZM706.62 709.459H550.521V553.355H706.62V709.459ZM550.521 866.233V711.692H706.62V866.233L628.548 788.159L550.521 866.189V866.233ZM708.853 551.122V395.017H800.235V459.737H864.952V551.122H708.853ZM863.344 553.355L785.273 631.429L863.299 709.459H708.764V553.355H863.299H863.344ZM706.665 393.365L705.012 395.017L628.548 471.484L548.244 391.221L471.78 314.754L506.707 279.826L629.978 403.102L751.82 281.211L785.317 314.71L708.853 391.176L706.665 393.365ZM548.288 709.459H393.753L471.78 631.429L393.708 553.355H548.244V709.459H548.288ZM390.269 553.042L468.609 631.429L392.145 707.896L311.84 788.203L278.343 754.705L403.043 630.045L279.772 506.814L311.84 474.744L390.224 553.131L390.269 553.042ZM548.288 711.692V867.796H459.721V800.218H392.19V711.648H548.288V711.692ZM548.288 871.638L628.548 791.375L706.933 869.762L785.317 948.149L753.249 980.218L629.978 856.943L505.322 981.648L471.825 948.149L548.288 871.682V871.638ZM866.873 709.816L788.488 631.429L864.952 554.963L945.212 474.7L978.71 508.199L856.823 630.045L980.094 753.32L945.168 788.248L866.783 709.861L866.873 709.816ZM981.881 508.154L1023.28 466.749V549.514L981.881 508.109V508.154ZM802.468 457.504V395.017H864.952V457.504H802.468ZM864.952 392.784H802.468V236.68H864.952V392.784ZM751.82 278.084L710.417 236.68H793.178L751.775 278.084H751.82ZM506.707 276.655L466.733 236.68H546.68L506.707 276.655ZM457.488 392.784H392.19V236.68H457.488V392.784ZM392.145 395.017H457.443V457.504H392.145V395.017ZM276.645 506.725L233.813 549.558V463.935L276.645 506.725ZM275.216 754.66L233.813 796.064V713.3L275.216 754.705V754.66ZM457.488 802.496V867.841H392.19V802.496H457.488ZM457.488 870.03V1026.13H392.19V870.03H457.488ZM505.277 984.774L546.68 1026.18H463.919L505.322 984.774H505.277ZM753.249 983.345L796.036 1026.13H710.417L753.204 983.345H753.249ZM802.468 870.03H864.952V1026.13H802.468V870.03ZM867.185 800.263V713.3L945.257 791.375L981.747 754.883L1023.28 796.422V800.263H867.185ZM1023.28 802.496V867.841H867.185V802.496H1023.28ZM1025.52 798.61L1027.12 800.218H1025.52V798.61ZM1029.85 3.17122L1256.78 230.114L1029.4 457.504H1025.56V392.784H867.23V234.447H802.513V230.605L1029.85 3.17122ZM459.721 2.72457H800.279V229.623L795.5 234.447H708.898V76.1092H548.333V234.447H464.589L459.81 229.667V229.623V2.72457H459.721ZM3.1711 230.114L230.106 3.17122L457.488 230.561V230.605V234.447H389.912V392.784H231.58V457.504H230.508L3.1711 230.114ZM2.67981 800.263V459.692H229.615L231.58 461.658V551.077H73.248V711.648H231.58V798.253L229.615 800.218H229.57H2.67981V800.263ZM230.106 1256.83L3.1711 1029.89L230.508 802.541H230.553H231.58V870.074H389.912V1028.41H457.443V1029.44L230.061 1256.83H230.106ZM800.235 1257.28H459.676V1030.33L461.641 1028.37H548.244V1186.7H708.809V1028.37H798.225L800.19 1030.33V1257.28H800.235ZM1256.78 1029.89L1029.85 1256.83L802.468 1029.44V1028.41H867.185V870.074H1025.52V802.496H1029.4L1256.74 1029.84L1256.78 1029.89Z" fill="#E2B274" fill-opacity="0.5"/>
</svg>
