<svg width="907" height="1117" viewBox="0 0 907 1117" fill="none" xmlns="http://www.w3.org/2000/svg">
<path d="M405.581 1116.52L711.459 1116.52L711.459 915.385L913.042 1116.96L1117 912.97L915.417 711.394L1116.56 711.394L1116.56 405.527L915.417 405.527L1117 203.991L913.002 -8.91704e-06L711.419 201.576L711.419 0.395927L405.541 0.395914L405.541 201.536L203.998 -3.99086e-05L-8.91672e-06 203.991L201.583 405.566L0.395856 405.566L0.395843 711.434L201.583 711.434L-3.99089e-05 913.009L203.998 1117L405.541 915.464L405.541 1116.6L405.581 1116.52ZM709.439 1114.55L407.521 1114.55L407.521 913.366L411.758 909.129L486.039 909.129L486.039 1049.49L628.387 1049.49L628.387 909.129L705.163 909.129L709.4 913.366L709.4 1114.51L709.439 1114.55ZM347.691 766.787L347.691 711.394L405.62 711.394L405.62 766.787L347.691 766.787ZM207.324 708.504L246.682 669.147L276.538 699.001L345.751 629.79L345.751 709.414L207.364 709.414L207.364 708.504L207.324 708.504ZM137.516 557.213L206.73 488.002L245.415 449.318L354.581 558.441L246.682 666.296L137.556 557.174L137.516 557.213ZM203.919 626.424L66.917 626.424L66.917 488.042L203.919 488.042L134.705 557.213L203.919 626.424ZM207.324 407.546L345.712 407.546L345.712 484.636L276.498 415.465L245.415 446.547L207.324 408.457L207.324 407.546ZM405.581 207.277L405.581 345.66L347.652 345.66L347.652 207.277L405.581 207.277ZM408.471 207.277L446.562 245.367L415.48 276.449L484.693 345.66L407.6 345.66L407.6 207.277L408.511 207.277L408.471 207.277ZM557.233 137.512L666.359 246.634L558.5 354.529L449.374 245.367L557.233 137.512ZM488.059 203.912L488.059 66.9147L626.447 66.9147L626.447 203.912L557.233 134.7L488.059 203.872L488.059 203.912ZM709.44 207.277L709.439 345.66L629.812 345.66L699.026 276.449L669.17 246.594L708.529 207.238L709.44 207.238L709.44 207.277ZM766.814 207.277L766.814 345.66L711.419 345.66L711.419 207.277L766.814 207.277ZM907.181 410.951L870.318 447.774L837.968 415.425L768.794 484.597L768.794 407.506L907.181 407.506L907.181 410.912L907.181 410.951ZM909.161 407.546L910.587 407.546L909.161 408.971L909.161 407.546ZM976.949 557.213L869.09 665.069L762.458 558.441L870.357 450.585L907.063 487.289L976.949 557.174L976.949 557.213ZM1047.55 488.002L1047.55 626.385L910.547 626.385L979.721 557.213L910.507 488.002L1047.55 488.002ZM907.181 709.414L768.794 709.414L768.794 629.79L838.007 698.961L869.09 667.88L907.181 705.97L907.181 709.375L907.181 709.414ZM909.161 707.949L910.587 709.375L909.161 709.375L909.161 707.949ZM766.814 768.767L766.814 907.149L711.419 907.149L711.419 768.767L766.814 768.767ZM705.995 907.149L667.903 869.059L698.986 837.978L629.812 768.767L709.439 768.767L709.439 907.149L706.034 907.149L705.995 907.149ZM709.439 909.129L709.439 910.554L708.014 909.129L709.439 909.129ZM557.233 976.915L450.601 870.287L558.5 762.392L665.132 869.02L557.272 976.875L557.233 976.915ZM626.446 910.515L626.446 1047.51L488.059 1047.51L488.059 910.515L557.233 979.686L626.446 910.475L626.446 910.515ZM413.777 907.149L449.215 871.712L484.654 907.149L413.777 907.149ZM347.691 709.414L347.691 628.404L486.079 628.404L486.079 766.787L407.56 766.787L407.56 709.414L347.652 709.414L347.691 709.414ZM766.814 407.546L766.814 486.062L628.426 486.062L628.426 347.679L709.439 347.679L709.439 407.546L766.814 407.546ZM628.426 626.424L628.426 488.042L765.428 488.042L696.254 557.253L765.468 626.464L628.466 626.464L628.426 626.424ZM488.059 626.424L488.059 488.042L626.447 488.042L626.447 626.424L488.059 626.424ZM349.077 488.042L486.079 488.042L486.079 626.424L349.077 626.424L418.291 557.213L349.117 488.042L349.077 488.042ZM628.426 628.404L766.814 628.404L766.814 709.414L709.439 709.414L709.439 766.787L628.426 766.787L628.426 628.404ZM626.446 765.361L557.233 696.15L488.059 765.322L488.059 628.325L626.447 628.325L626.446 765.322L626.446 765.361ZM768.279 626.464L766.814 624.999L699.026 557.213L770.18 486.022L837.968 418.237L868.932 449.199L759.647 558.48L867.704 666.494L838.007 696.19L770.219 628.404L768.279 626.464ZM488.059 486.062L488.059 349.065L557.233 418.237L626.447 349.025L626.447 486.022L488.059 486.022L488.059 486.062ZM626.724 345.977L557.233 415.425L489.445 347.64L418.251 276.449L447.948 246.753L558.46 357.301L667.705 248.02L696.135 276.449L626.645 345.937L626.724 345.977ZM486.079 486.062L347.691 486.062L347.691 407.546L407.6 407.546L407.6 347.679L486.119 347.679L486.119 486.062L486.079 486.062ZM344.286 486.062L415.44 557.213L345.949 626.701L276.458 696.19L248.029 667.761L357.313 558.48L246.762 447.972L276.458 418.276L344.247 486.062L344.286 486.062ZM487.742 768.489L557.233 699.001L625.021 766.787L696.175 837.938L666.478 867.634L558.46 759.581L449.176 868.861L418.212 837.898L487.703 768.41L487.742 768.489ZM666.518 870.445L703.223 907.149L629.852 907.149L666.557 870.445L666.518 870.445ZM711.419 711.394L766.814 711.394L766.814 766.787L711.419 766.787L711.419 711.394ZM768.794 766.787L768.794 711.394L907.181 711.394L907.181 766.787L768.794 766.787ZM870.476 666.494L907.181 629.79L907.181 703.158L870.476 666.454L870.476 666.494ZM871.743 449.199L907.181 413.762L907.181 484.636L871.743 449.199ZM768.794 405.566L768.794 347.679L907.181 347.679L907.181 405.566L768.794 405.566ZM766.814 347.64L766.814 405.527L711.419 405.527L711.419 347.64L766.814 347.64ZM667.785 245.248L629.812 207.277L705.717 207.277L667.785 245.248ZM447.988 243.981L411.283 207.277L484.654 207.277L447.948 243.981L447.988 243.981ZM405.581 405.566L347.652 405.566L347.652 347.679L405.581 347.679L405.581 405.566ZM345.712 405.566L207.324 405.566L207.324 347.679L345.712 347.679L345.712 405.566ZM243.99 447.932L207.284 484.636L207.284 411.268L243.99 447.972L243.99 447.932ZM245.257 667.761L207.324 705.692L207.324 629.79L245.257 667.721L245.257 667.761ZM345.712 711.394L345.712 766.787L207.324 766.787L207.324 711.394L345.712 711.394ZM407.56 768.767L484.654 768.767L415.44 837.978L447.79 870.326L410.966 907.149L407.56 907.149L407.56 768.767ZM405.581 907.149L347.652 907.149L347.652 768.767L405.581 768.767L405.581 907.149ZM409.025 909.129L407.6 910.554L407.6 909.129L409.025 909.129ZM1114.19 912.97L913.002 1114.15L711.419 912.574L711.419 909.169L768.794 909.169L768.794 768.806L909.161 768.806L909.161 711.434L912.566 711.434L1114.19 912.97ZM1114.58 407.546L1114.58 709.454L913.438 709.454L909.161 705.217L909.161 628.444L1049.53 628.444L1049.53 486.101L909.161 486.101L909.161 411.862L913.398 407.625L913.438 407.625L1114.58 407.625L1114.58 407.546ZM913.002 2.8112L1114.19 203.991L912.606 405.566L912.566 405.566L909.161 405.566L909.161 345.66L768.794 345.66L768.794 205.297L711.419 205.297L711.419 204.347L913.002 2.8112ZM407.56 2.37564L709.479 2.37565L709.479 203.555L707.737 205.297L628.466 205.297L628.466 64.9349L486.119 64.9349L486.119 205.297L409.342 205.297L407.6 203.555L407.6 203.516L407.6 2.37564L407.56 2.37564ZM2.81115 203.991L203.998 2.81117L405.541 204.347L405.541 204.387L405.541 205.297L345.672 205.297L345.672 345.66L205.305 345.66L205.305 405.527L204.394 405.527L2.81115 203.951L2.81115 203.991ZM2.41525 709.414L2.41527 407.506L203.602 407.506L205.344 409.249L205.344 486.022L64.9768 486.022L64.9768 628.364L205.344 628.364L205.344 707.633L203.602 709.375L2.41525 709.375L2.41525 709.414ZM203.998 1114.15L2.81112 912.97L204.394 711.394L205.305 711.394L205.305 768.767L345.672 768.767L345.672 909.129L405.581 909.129L405.581 912.574L204.037 1114.11L203.998 1114.15Z" fill="url(#paint0_linear_811_1336)" fill-opacity="0.3"/>
<defs>
<linearGradient id="paint0_linear_811_1336" x1="1117" y1="558.5" x2="-2.44128e-05" y2="558.5" gradientUnits="userSpaceOnUse">
<stop stop-color="#C5985E"/>
<stop offset="1" stop-color="#C5985E" stop-opacity="0"/>
</linearGradient>
</defs>
</svg>
