<svg width="70" height="70" viewBox="0 0 70 70" fill="none" xmlns="http://www.w3.org/2000/svg">
<path fill-rule="evenodd" clip-rule="evenodd" d="M27.0479 17.5027L35.0038 9.54688L42.9596 17.5027L35.0038 25.4585L27.0479 17.5027ZM52.5048 27.0479L60.4606 35.0038L52.5048 42.9596L44.549 35.0038L52.5048 27.0479ZM27.0479 52.5048L35.0038 60.4606L42.9596 52.5048L35.0038 44.549L27.0479 52.5048ZM17.5027 27.0479L9.54688 35.0038L17.5027 42.9596L25.4585 35.0038L17.5027 27.0479Z" fill="#131C3D"/>
<path fill-rule="evenodd" clip-rule="evenodd" d="M66.0242 13.521L70 17.4968L60.4547 27.042L56.479 23.0663L52.5032 27.042L42.958 17.4968L46.9337 13.521L42.958 9.54526L52.5032 0L56.479 3.97576L60.4547 0L70 9.54526L66.0242 13.521ZM25.4569 35.0021L35.0021 44.5474L44.5474 35.0021L35.0021 25.4569L25.4569 35.0021ZM23.0706 56.479L27.0463 60.4547L17.5011 70L13.5253 66.0242L9.54954 70L0 60.4547L3.97576 56.479L0 52.5032L9.54526 42.958L13.521 46.9337L17.4968 42.958L27.042 52.5032L23.0663 56.479H23.0706ZM23.0706 13.521L27.0463 17.4968L17.5011 27.042L13.5253 23.0663L9.54954 27.042L0 17.5011L3.97576 13.5253L0 9.54526L9.54526 0L13.521 3.97576L17.5011 0L27.0463 9.54526L23.0706 13.521ZM66.0242 56.479L70 60.4547L60.4547 70L56.479 66.0242L52.5032 70L42.958 60.4547L46.9337 56.479L42.958 52.5032L52.5032 42.958L56.479 46.9337L60.4547 42.958L70 52.5032L66.0242 56.479Z" fill="url(#paint0_linear_1697_10382)"/>
<defs>
<linearGradient id="paint0_linear_1697_10382" x1="15.5946" y1="15.5946" x2="83.9152" y2="83.9152" gradientUnits="userSpaceOnUse">
<stop stop-color="#EAC781"/>
<stop offset="1" stop-color="#A87242"/>
</linearGradient>
</defs>
</svg>
