<svg width="70" height="70" viewBox="0 0 70 70" fill="none" xmlns="http://www.w3.org/2000/svg">
<path fill-rule="evenodd" clip-rule="evenodd" d="M0 41.3653H15.9059L22.2723 34.9986L15.9059 28.6367H0V41.3653ZM69.9951 41.3653H54.0891L47.7228 34.9986L54.0891 28.6367H69.9951V41.3653Z" fill="#C5985E"/>
<path fill-rule="evenodd" clip-rule="evenodd" d="M28.6328 0V15.9071L34.9991 22.2739L41.3605 15.9071V0H28.6328ZM28.6328 70V54.0929L34.9991 47.7262L41.3605 54.0929V70H28.6328Z" fill="#C5985E"/>
<path d="M47.7244 34.9988L35 22.2734L22.2756 34.9988L35 47.7241L47.7244 34.9988Z" fill="#C5985E"/>
<path fill-rule="evenodd" clip-rule="evenodd" d="M12.7277 0L28.6337 15.9071V28.6357H15.9059L0 12.7286L12.7277 0ZM12.7277 70L28.6337 54.0929V41.3643H15.9059L0 57.2714L12.7277 70ZM57.2673 70L41.3564 54.088V41.3594H54.0842L69.9951 57.2714L57.2673 70ZM57.2673 0L41.3614 15.9071V28.6357H54.0891L70 12.7286L57.2673 0Z" fill="#131C3D"/>
</svg>
