<svg width="70" height="70" viewBox="0 0 70 70" fill="none" xmlns="http://www.w3.org/2000/svg">
<path fill-rule="evenodd" clip-rule="evenodd" d="M69.9951 58.8614L58.8564 47.7228L47.7178 58.8614L58.8564 70L69.9951 58.8614ZM69.9951 11.1386L58.8614 0L47.7228 11.1386L58.8614 22.2772L70 11.1386H69.9951ZM22.2772 11.1386L11.1386 0L0 11.1386L11.1386 22.2772L22.2772 11.1386ZM22.2772 58.8614L11.1386 47.7228L0 58.8614L11.1386 70L22.2772 58.8614Z" fill="#131C3D"/>
<path fill-rule="evenodd" clip-rule="evenodd" d="M47.7277 47.7277H70V22.2723H47.7277V0H22.2723V22.2723H0V47.7277H22.2723V70H47.7277V47.7277ZM22.2772 47.7228V22.2772H47.7228V47.7228H22.2772Z" fill="#C5985E"/>
</svg>
