<svg width="70" height="70" viewBox="0 0 70 70" fill="none" xmlns="http://www.w3.org/2000/svg">
<path fill-rule="evenodd" clip-rule="evenodd" d="M57.2714 70L44.5428 57.2714V44.5428H57.2714L70 57.2714L57.2714 70ZM12.7286 70L25.4572 57.2714V44.5428H12.7286L0 57.2714L12.7286 70ZM57.2714 0L44.5428 12.7286V25.4572H57.2714L70 12.7286L57.2714 0ZM12.7286 0L25.4572 12.7286V25.4572H12.7286L0 12.7286L12.7286 0Z" fill="#C5985E"/>
<path fill-rule="evenodd" clip-rule="evenodd" d="M25.4572 0V12.7286L35.0025 22.2788L44.5477 12.7286V0H25.4572ZM0 25.4572H12.7286L22.2788 35.0025L12.7286 44.5477H0V25.4572ZM25.4572 70V57.2714L35.0025 47.7212L44.5477 57.2714V70H25.4572ZM70 25.4572H57.2714L47.7212 35.0025L57.2714 44.5477H70V25.4572Z" fill="#131C3D"/>
</svg>
