<svg width="22" height="17" viewBox="0 0 22 17" fill="none" xmlns="http://www.w3.org/2000/svg">
<path d="M2.8 1.41L5.18 3.79C5.1 3.85 5.02 3.9 4.94 3.96L0.71 7.53C0.26 7.91 0 8.47 0 9.06C0 9.65 0.26 10.21 0.71 10.59L4.94 14.16C6.58 15.54 8.59 16.24 10.61 16.24C12.46 16.24 14.3 15.65 15.86 14.48L18.26 16.88L19.67 15.47L4.22 0L2.81 1.41H2.8ZM6.24 12.63L2.01 9.06L6.24 5.49C6.36 5.39 6.48 5.3 6.61 5.21L7.79 6.39C7.12 7.1 6.73 8.04 6.73 9.05C6.73 11.2 8.48 12.94 10.62 12.94C11.63 12.94 12.57 12.55 13.28 11.88L14.42 13.02C11.92 14.72 8.59 14.6 6.24 12.62V12.63ZM11.86 10.47C11.52 10.77 11.09 10.95 10.62 10.95C9.58 10.95 8.73 10.1 8.73 9.06C8.73 8.59 8.91 8.16 9.21 7.82L11.86 10.47Z" fill="#949494"/>
<path d="M20.5201 7.53097L16.2901 3.96097C14.2301 2.22097 11.5801 1.57097 9.08008 2.02097L10.9701 3.91097C12.4101 3.98097 13.8201 4.50097 15.0001 5.49097L19.2301 9.06097L17.5401 10.491L18.9601 11.911L20.5201 10.591C20.9701 10.211 21.2301 9.65097 21.2301 9.06097C21.2301 8.47097 20.9701 7.91097 20.5201 7.53097Z" fill="#949494"/>
</svg>
