<svg width="70" height="70" viewBox="0 0 70 70" fill="none" xmlns="http://www.w3.org/2000/svg">
<path fill-rule="evenodd" clip-rule="evenodd" d="M9.54456 0H0V9.54518L18.8861 28.4326H28.4307V18.8874L9.54456 0Z" fill="#131C3D"/>
<path fill-rule="evenodd" clip-rule="evenodd" d="M60.4486 69.999H69.9932V60.4538L51.1071 41.5664H41.5625V51.1116L60.4486 69.999Z" fill="#131C3D"/>
<path fill-rule="evenodd" clip-rule="evenodd" d="M0 60.4577V70.0029H9.54456L28.4307 51.1155V41.5703H18.8861L0 60.4577Z" fill="#131C3D"/>
<path fill-rule="evenodd" clip-rule="evenodd" d="M69.9932 9.54518V0H60.4486L41.5625 18.8874V28.4326H51.1071L69.9932 9.54518Z" fill="#131C3D"/>
<path fill-rule="evenodd" clip-rule="evenodd" d="M27.0446 62.0437L35 69.9997L42.9554 62.0437L35 54.0877L27.0446 62.0437ZM62.0446 42.9583L70 35.0023L62.0446 27.0463L54.0891 35.0023L62.0446 42.9583ZM7.95545 42.9583L15.9109 35.0023L7.95545 27.0463L0 35.0023L7.95545 42.9583ZM35 40.9433L40.9455 34.9974L35 29.0514L29.0545 34.9974L35 40.9433ZM27.0446 7.95597L35 15.9119L42.9554 7.95597L35 0L27.0446 7.95597Z" fill="#C5985E"/>
<path d="M29.0584 35.0002L22.4844 28.4258L15.9104 35.0002L22.4844 41.5746L29.0584 35.0002Z" fill="#C5985E"/>
<path d="M54.0896 35.0002L47.5156 28.4258L40.9416 35.0002L47.5156 41.5746L54.0896 35.0002Z" fill="#C5985E"/>
<path d="M34.9963 29.0549L41.5703 22.4805L34.9963 15.906L28.4223 22.4805L34.9963 29.0549Z" fill="#C5985E"/>
<path d="M34.9963 54.0861L41.5703 47.5117L34.9963 40.9373L28.4223 47.5117L34.9963 54.0861Z" fill="#C5985E"/>
</svg>
