<svg width="70" height="70" viewBox="0 0 70 70" fill="none" xmlns="http://www.w3.org/2000/svg">
<path fill-rule="evenodd" clip-rule="evenodd" d="M35.0071 0.0859375L28.6566 6.43652V15.9377L35.0071 22.2883L41.3528 15.9377V6.43158L35.0071 0.0859375ZM22.3109 34.9944L35.0071 47.6906L47.7034 34.9944L35.0071 22.2982L22.3109 34.9944ZM35.0071 47.7104L28.6566 54.056V63.5572L35.0071 69.9078L41.3528 63.5572V54.056L35.0071 47.7104ZM47.7231 34.9944L54.0737 41.345H63.5749L69.9255 34.9944L63.5749 28.6488H54.0737L47.7231 34.9944ZM0.09375 34.9944L6.4394 41.345H15.9406L22.2862 34.9944L15.9406 28.6488H6.44433L0.09375 34.9944Z" fill="#131C3D"/>
<path d="M28.7307 41.4307L15.8666 41.4258L9.24933 48.043L6.77527 50.5171L0.158024 57.1343L0 69.8306L12.8592 69.8404L19.4814 63.2183L21.9554 60.7491L28.5727 54.127L28.7307 41.4307Z" fill="#C5985E"/>
<path d="M69.9963 0.161188L57.1322 0.15625L50.515 6.7735L48.0409 9.24756L41.4236 15.8648L41.2656 28.561L54.1248 28.5709L60.747 21.9537L63.2161 19.4796L69.8383 12.8574L69.9963 0.161188Z" fill="#C5985E"/>
<path d="M28.561 28.7307L28.5709 15.8666L21.9537 9.24933L19.4796 6.77527L12.8574 0.158024L0.161188 0L0.15625 12.8592L6.7735 19.4814L9.24756 21.9554L15.8648 28.5727L28.561 28.7307Z" fill="#C5985E"/>
<path d="M69.8267 70.0002L69.8365 57.1361L63.2144 50.5189L60.7452 48.0448L54.123 41.4276L41.4268 41.2695L41.4219 54.1287L48.0391 60.7509L50.5132 63.22L57.1304 69.8422L69.8267 70.0002Z" fill="#C5985E"/>
</svg>
