<svg width="70" height="70" viewBox="0 0 70 70" fill="none" xmlns="http://www.w3.org/2000/svg">
<path fill-rule="evenodd" clip-rule="evenodd" d="M35 69.995L28.6337 63.6337V54.1089L35 47.7426L41.3663 54.1089V63.6337L35 69.995ZM50.9059 50.9059H57.2723L63.6337 57.2673V63.6337H57.2673L50.9059 57.2723V50.9059ZM50.9059 19.0891V12.7228L57.2673 6.36139H63.6337V12.7277L57.2723 19.0891H50.9059ZM35 22.2525L28.6337 15.8861V6.36139L35 0L41.3663 6.36139V15.8861L35 22.2525ZM6.36139 6.36139H12.7277L19.0891 12.7228V19.0891H12.7228L6.36139 12.7277V6.36139ZM0 35L6.36139 28.6337H15.8861L22.2475 35L15.8861 41.3663H6.36139L0 35ZM6.36139 63.6337V57.2673L12.7228 50.9059H19.0891V57.2723L12.7277 63.6337H6.36139ZM47.7426 35L54.1089 28.6337H63.6337L70 35L63.6337 41.3663H54.1089L47.7426 35Z" fill="#131C3D"/>
<path fill-rule="evenodd" clip-rule="evenodd" d="M19.0891 41.3614H28.6337V50.9059H19.0891V41.3614ZM0 0H6.36634V6.36634H0V0ZM19.0891 19.0891H28.6337V28.6337H19.0891V19.0891ZM63.6337 0H70V6.36634H63.6337V0ZM41.3614 19.0891H50.9059V28.6337H41.3614V19.0891ZM41.3614 41.3614H50.9059V50.9059H41.3614V41.3614ZM63.6337 63.6337H70V70H63.6337V63.6337ZM22.2723 35L35 22.2723L47.7277 35L35 47.7277L22.2723 35ZM0 63.6337H6.36634V70H0V63.6337Z" fill="#C5985E"/>
</svg>
