<svg width="70" height="70" viewBox="0 0 70 70" fill="none" xmlns="http://www.w3.org/2000/svg">
<path fill-rule="evenodd" clip-rule="evenodd" d="M34.995 11.137L40.5636 5.56852L34.995 0L29.4265 5.56852L34.995 11.137ZM47.721 34.9951L34.995 47.721L29.4265 53.2895L34.995 58.858L40.5636 64.4265L34.995 69.9951L29.4265 64.4265L34.995 58.858L40.5636 53.2895L34.995 47.721L22.2691 34.9951L16.7006 40.5636L11.1321 34.9951L5.56357 40.5636L0 34.9951L5.56852 29.4265L11.137 34.9951L16.7056 29.4265L22.2741 34.9951L35 22.2691L29.4315 16.7006L35 11.1321L40.5685 16.7006L35 22.2691L47.7259 34.9951L53.2944 29.4265L58.863 34.9951L64.4315 40.5636L70 34.9951L64.4315 29.4265L58.863 34.9951L53.2944 40.5636L47.7259 34.9951H47.721Z" fill="#131C3D"/>
<path fill-rule="evenodd" clip-rule="evenodd" d="M12.7259 69.9852L29.4265 53.2845L16.7006 40.5586L0 57.2642L12.7259 69.9901V69.9852ZM0 12.7259L16.7006 29.4265L29.4265 16.7006L12.7259 0L0 12.7259ZM69.9901 12.7259L53.2895 29.4265L40.5636 16.7006L57.2642 0L69.9901 12.7259ZM57.2642 69.9852L40.5636 53.2845L53.2895 40.5586L69.9901 57.2592L57.2642 69.9852Z" fill="#C5985E"/>
</svg>
