<svg width="70" height="70" viewBox="0 0 70 70" fill="none" xmlns="http://www.w3.org/2000/svg">
<path fill-rule="evenodd" clip-rule="evenodd" d="M26.2475 35L17.5 43.7475H26.2475V52.495L34.9951 43.7475L43.7426 35L52.4901 26.2525H43.7426V17.505L34.9951 26.2525L26.2475 35ZM35 26.2475L43.7475 34.9951L52.4951 43.7426H43.7475V52.4901L35 43.7426L26.2525 34.9951L17.505 26.2475H26.2525V17.5L35 26.2525V26.2475Z" fill="#131C3D"/>
<path fill-rule="evenodd" clip-rule="evenodd" d="M17.5 8.75248H26.2475V17.5L34.9951 8.75248L43.7475 0L52.4951 8.75248H61.2475V17.5L69.9951 26.2525L61.2475 35L52.4951 43.7475H61.2426V52.495L69.9901 61.2426L61.2426 69.9901L52.4901 61.2426H43.7426V52.495L34.9951 61.2426L26.2475 69.9901L17.5 61.2426H8.75248V52.495L0 43.7475L8.75248 35L17.5 26.2525H8.75248V17.505L0 8.75248L8.75248 0L17.5 8.75248ZM70 8.75248L61.2475 0L52.4951 8.75248H43.7475V17.5L35 8.75248L26.2475 0L17.5 8.75248H8.75248V17.5L0 26.2475L8.75248 34.9951L17.5 43.7426H8.75248V52.4901L0 61.2475L8.75248 69.995L17.5 61.2475H26.2475V52.5L34.9951 61.2475L43.7426 69.995L52.4901 61.2475H61.2426V52.5L69.9901 43.7525L61.2426 35.005L52.4901 26.2574H61.2376V17.5099L69.9852 8.76238L70 8.75248Z" fill="#C5985E"/>
</svg>
