<svg width="30" height="30" viewBox="0 0 30 30" fill="none" xmlns="http://www.w3.org/2000/svg">
<path d="M19.0319 0H10.9681C1.93511 0 0 1.93784 0 10.9681V19.0319C0 28.0649 1.93784 30 10.9681 30H19.0319C28.0649 30 30 28.0622 30 19.0319V10.9681C30 1.93511 28.0615 0 19.0319 0ZM24.1312 9.20354L24.121 9.20013C23.7895 10.7628 23.4539 12.3255 23.1224 13.8882C22.7411 15.6766 22.3639 17.4651 21.9826 19.2536C21.7678 20.2699 21.5522 21.2855 21.3299 22.3012C21.291 22.4881 21.231 22.6715 21.1498 22.8441C20.9663 23.2322 20.6594 23.3625 20.2467 23.2534C20.0243 23.1934 19.8231 23.0979 19.6362 22.9608C18.5742 22.1668 15.0641 19.5598 13.0219 18.0428C13.0287 18.0074 13.0465 17.9692 13.0751 17.9439C15.4106 15.8062 17.7495 13.672 20.0844 11.5343C20.3313 11.3085 20.5782 11.0827 20.8251 10.8569C20.8708 10.8147 20.9172 10.7655 20.9486 10.7123C20.9943 10.638 20.9697 10.5677 20.8851 10.5398C20.7651 10.4975 20.6416 10.5118 20.5325 10.5677C20.4445 10.61 20.3633 10.6666 20.2822 10.7157C17.2659 12.6133 14.2497 14.5116 11.2335 16.4133C11.0677 16.519 10.8986 16.6213 10.7328 16.7305C10.6837 16.7625 10.6414 16.7694 10.5814 16.7516C9.21991 16.3321 7.85776 15.9188 6.49629 15.4993C6.35851 15.457 6.21391 15.4181 6.08704 15.3547C5.80124 15.2135 5.74462 14.9775 5.91037 14.7053C6.01269 14.5396 6.16821 14.4304 6.34419 14.3561C6.76027 14.1801 7.18044 14.0103 7.60334 13.8479C10.1994 12.8425 12.7961 11.8439 15.3963 10.8426C17.9078 9.87268 20.4199 8.90273 22.9348 7.93552C23.0481 7.89323 23.1674 7.86526 23.2875 7.84412C23.7745 7.76636 24.0883 8.18244 24.1551 8.51462C24.2008 8.74722 24.1797 8.97299 24.1306 9.20286L24.1312 9.20354Z" fill="#C5985E"/>
</svg>
