<svg width="140" height="71" viewBox="0 0 140 71" fill="none" xmlns="http://www.w3.org/2000/svg">
<path fill-rule="evenodd" clip-rule="evenodd" d="M97.0405 17.4976L104.985 9.5332L112.929 17.4976L104.985 25.4418L97.0405 17.4976ZM122.482 27.0508L130.426 34.9951L122.482 42.9393L114.538 34.9951L122.482 27.0508ZM97.0405 52.4925L104.985 60.4368L112.929 52.4925L104.985 44.5483L97.0405 52.4925ZM87.4872 27.0508L79.543 34.9951L87.4872 42.9393L95.4315 34.9951L87.4872 27.0508Z" fill="#EBEBEB"/>
<path fill-rule="evenodd" clip-rule="evenodd" d="M136.019 13.5153L140.001 17.4975L130.448 27.0507L126.465 23.0685L122.483 27.0507L112.93 17.4975L116.912 13.5153L112.93 9.53311L122.483 0L126.465 3.98219L130.448 0L140.001 9.55322L136.019 13.5354V13.5153ZM95.4527 34.995L105.006 44.5482L114.559 34.995L105.006 25.4417L95.4527 34.995ZM93.0593 56.4746L97.0415 60.4568L87.4883 70.0101L83.5061 66.0279L79.5239 70.0101L69.9707 60.4568L73.9529 56.4746L69.9707 52.4925L79.5239 42.9392L83.5061 46.9214L87.4883 42.9392L97.0415 52.4925L93.0593 56.4746ZM93.0593 13.5153L97.0415 17.4975L87.4883 27.0507L83.5061 23.0685L79.5239 27.0507L69.9707 17.4975L73.9529 13.5153L69.9707 9.53311L79.544 0L83.5262 3.98219L87.4883 0L97.0415 9.55322L93.0593 13.5354V13.5153ZM136.019 56.4746L140.001 60.4568L130.448 70.0101L126.465 66.0279L122.483 70.0101L112.93 60.4568L116.912 56.4746L112.93 52.4925L122.483 42.9392L126.465 46.9214L130.448 42.9392L140.001 52.4925L136.019 56.4746Z" fill="url(#paint0_linear_532_2794)"/>
<path fill-rule="evenodd" clip-rule="evenodd" d="M9.55322 0H0V9.55323L18.8852 28.4384H28.4183V18.8852L9.55322 0Z" fill="#EBEBEB"/>
<path fill-rule="evenodd" clip-rule="evenodd" d="M60.4549 69.9902H70.0082V60.437L51.123 41.5518H41.5898V51.105L60.4751 69.9902H60.4549Z" fill="#EBEBEB"/>
<path fill-rule="evenodd" clip-rule="evenodd" d="M0 60.4569V70.0101H9.55323L28.4384 51.1249V41.5918H18.8852L0 60.4569Z" fill="#EBEBEB"/>
<path fill-rule="evenodd" clip-rule="evenodd" d="M69.9912 9.55322V0H60.438L41.5527 18.8852V28.4183H51.106L69.9912 9.53311V9.55322Z" fill="#EBEBEB"/>
<path fill-rule="evenodd" clip-rule="evenodd" d="M27.0507 62.0457L35.0151 70.0101L42.9795 62.0457L35.0151 54.0813L27.0507 62.0457ZM62.0457 42.9593L69.9899 34.995L62.0457 27.0306L54.0813 34.995L62.0457 42.9593ZM7.96437 42.9593L15.9287 34.995L7.96437 27.0306L0 34.995L7.96437 42.9593ZM34.995 40.9481L40.928 35.0151L34.995 29.082L29.0619 35.0151L34.995 40.9481ZM27.0507 7.94426L35.0151 15.9086L42.9795 7.94426L35.0151 0L27.0507 7.94426Z" fill="url(#paint1_linear_532_2794)"/>
<path d="M29.0586 34.9931L22.4883 28.4229L15.918 34.9931L22.4883 41.5634L29.0586 34.9931Z" fill="url(#paint2_linear_532_2794)"/>
<path d="M54.0703 34.9863L47.5 28.416L40.9297 34.9863L47.5 41.5566L54.0703 34.9863Z" fill="url(#paint3_linear_532_2794)"/>
<path d="M34.9961 29.0517L41.5664 22.4814L34.9961 15.9112L28.4259 22.4814L34.9961 29.0517Z" fill="url(#paint4_linear_532_2794)"/>
<path d="M35.0039 54.0781L41.5742 47.5078L35.0039 40.9375L28.4337 47.5078L35.0039 54.0781Z" fill="url(#paint5_linear_532_2794)"/>
<defs>
<linearGradient id="paint0_linear_532_2794" x1="77.4926" y1="7.48168" x2="134.47" y2="64.4792" gradientUnits="userSpaceOnUse">
<stop stop-color="#EAC781"/>
<stop offset="1" stop-color="#A87242"/>
</linearGradient>
<linearGradient id="paint1_linear_532_2794" x1="12.9723" y1="12.9723" x2="60.135" y2="60.135" gradientUnits="userSpaceOnUse">
<stop stop-color="#EAC781"/>
<stop offset="1" stop-color="#A87242"/>
</linearGradient>
<linearGradient id="paint2_linear_532_2794" x1="6.72172" y1="19.2215" x2="53.8845" y2="66.4043" gradientUnits="userSpaceOnUse">
<stop stop-color="#EAC781"/>
<stop offset="1" stop-color="#A87242"/>
</linearGradient>
<linearGradient id="paint3_linear_532_2794" x1="19.2277" y1="6.71914" x2="66.4106" y2="53.8819" gradientUnits="userSpaceOnUse">
<stop stop-color="#EAC781"/>
<stop offset="1" stop-color="#A87242"/>
</linearGradient>
<linearGradient id="paint4_linear_532_2794" x1="19.2245" y1="6.71489" x2="66.4073" y2="53.8776" gradientUnits="userSpaceOnUse">
<stop stop-color="#EAC781"/>
<stop offset="1" stop-color="#A87242"/>
</linearGradient>
<linearGradient id="paint5_linear_532_2794" x1="6.72258" y1="19.2213" x2="53.8854" y2="66.4042" gradientUnits="userSpaceOnUse">
<stop stop-color="#EAC781"/>
<stop offset="1" stop-color="#A87242"/>
</linearGradient>
</defs>
</svg>
