<svg width="214" height="56" viewBox="0 0 214 56" fill="none" xmlns="http://www.w3.org/2000/svg">
<path fill-rule="evenodd" clip-rule="evenodd" d="M28.0097 0.0683594L22.93 5.14807V12.7517L28.0097 17.8314L33.0894 12.7517V5.14807L28.0097 0.0683594ZM17.8503 27.9999L28.0051 38.1548L38.16 27.9999L28.0051 17.8451L17.8503 27.9999ZM28.0097 38.173L22.93 43.2527V50.8563L28.0097 55.936L33.0894 50.8563V43.2527L28.0097 38.173ZM38.1782 27.9999L43.2579 33.0796H50.8615L55.9412 27.9999L50.8615 22.9202H43.2579L38.1782 27.9999ZM0.078125 27.9999L5.15783 33.0796H12.7614L17.8411 27.9999L12.7614 22.9202H5.15327L0.078125 27.9999Z" fill="#EBEBEB"/>
<path d="M22.9842 33.1478L12.697 33.1387L7.39821 38.4374L5.42201 40.4137L0.123227 45.7124L0 55.8673L10.2872 55.8764L15.586 50.5776L17.5622 48.6014L22.861 43.3026L22.9842 33.1478Z" fill="url(#paint0_linear_675_928)"/>
<path d="M55.9998 0.132053L45.7126 0.122925L40.4138 5.4217L38.4376 7.3979L33.1389 12.6967L33.0156 22.8515L43.3028 22.8607L48.6016 17.5619L50.5778 15.5857L55.8766 10.2869L55.9998 0.132053Z" fill="url(#paint1_linear_675_928)"/>
<path d="M22.8517 22.9842L22.8608 12.697L17.562 7.39821L15.5858 5.42201L10.287 0.123227L0.132175 0L0.123047 10.2872L5.42182 15.586L7.39803 17.5622L12.6968 22.861L22.8517 22.9842Z" fill="url(#paint2_linear_675_928)"/>
<path d="M55.8673 55.9999L55.8764 45.7127L50.5776 40.414L48.6014 38.4378L43.3026 33.139L33.1478 33.0157L33.1387 43.303L38.4374 48.6017L40.4137 50.5779L45.7124 55.8767L55.8673 55.9999Z" fill="url(#paint3_linear_675_928)"/>
<path d="M70.1387 16.7267V6.38477H77.6601V8.3062H72.2062V14.8099H77.7331V16.7313H70.1387V16.7267ZM70.9374 12.4275V10.538H76.8477V12.4275H70.9374Z" fill="#EBEBEB"/>
<path d="M79.5547 16.7267V6.38477H84.3286C84.9995 6.38477 85.5837 6.49886 86.0812 6.7225C86.5786 6.9507 86.962 7.26105 87.2359 7.66268C87.5051 8.05975 87.6421 8.52071 87.6421 9.04556C87.6421 9.57042 87.5097 10.0131 87.2496 10.3828C86.9894 10.7525 86.6334 11.0309 86.177 11.218V11.291C86.7293 11.4371 87.1674 11.7292 87.4914 12.1536C87.8155 12.5826 87.9798 13.1075 87.9798 13.7282C87.9798 14.3489 87.8292 14.8555 87.528 15.3028C87.2267 15.75 86.7932 16.1015 86.2272 16.3525C85.6613 16.6035 84.9813 16.7313 84.1963 16.7313H79.5547V16.7267ZM84.105 14.9696C84.4792 14.9696 84.7987 14.9194 85.0588 14.8144C85.319 14.7095 85.5198 14.5543 85.6567 14.3489C85.7936 14.1435 85.8621 13.8879 85.8621 13.5822C85.8621 13.2764 85.7936 13.0208 85.6567 12.8154C85.5198 12.61 85.3236 12.4549 85.068 12.359C84.8124 12.2586 84.4929 12.213 84.1095 12.213H80.9011V10.6019H84.1232C84.5751 10.6019 84.9265 10.4923 85.1729 10.2687C85.4194 10.0451 85.5426 9.74385 85.5426 9.36048C85.5426 9.1049 85.4879 8.88583 85.3783 8.70327C85.2688 8.52071 85.109 8.38379 84.89 8.28794C84.6709 8.1921 84.4153 8.14646 84.1232 8.14646H81.5948V14.9742H84.105V14.9696Z" fill="#EBEBEB"/>
<path d="M89.7969 16.7267V6.38477H93.9364C94.7351 6.38477 95.4379 6.53538 96.0404 6.8366C96.6428 7.13782 97.1175 7.55771 97.4507 8.10082C97.7838 8.64393 97.9527 9.26464 97.9527 9.96292C97.9527 10.6612 97.7838 11.2819 97.4507 11.825C97.1175 12.3681 96.6474 12.788 96.0404 13.0892C95.4334 13.3905 94.7305 13.5411 93.9364 13.5411H90.7599V11.6333H93.8771C94.2924 11.6333 94.6438 11.5694 94.9359 11.4417C95.228 11.3139 95.4471 11.1222 95.6023 10.8712C95.7529 10.6201 95.8305 10.3189 95.8305 9.96292C95.8305 9.42894 95.6616 9.01818 95.3284 8.72152C94.9952 8.42486 94.5115 8.27882 93.8816 8.27882H91.8415V12.4914L91.8689 12.61V16.7313H89.8014L89.7969 16.7267Z" fill="#EBEBEB"/>
<path d="M97.998 16.7274L100.956 6.38086H105.195L108.153 16.7274H106.04L103.689 8.27491H102.421L100.084 16.7274H97.998ZM99.8465 14.3039L100.408 12.4144H105.743L106.304 14.3039H99.8465Z" fill="#EBEBEB"/>
<path d="M113.071 16.919C112.195 16.919 111.433 16.7821 110.78 16.5128C110.132 16.2436 109.616 15.8511 109.237 15.3445C108.858 14.8379 108.644 14.24 108.594 13.5508H110.753C110.803 14.0528 111.017 14.4317 111.401 14.6827C111.784 14.9337 112.336 15.0615 113.057 15.0615C113.482 15.0615 113.842 15.0067 114.144 14.8972C114.445 14.7876 114.668 14.6279 114.824 14.418C114.974 14.208 115.052 13.957 115.052 13.674C115.052 13.3911 114.979 13.1446 114.837 12.9438C114.696 12.743 114.481 12.5878 114.203 12.4874C113.924 12.3824 113.578 12.3322 113.176 12.3322H111.816V10.5751H113.176C113.491 10.5751 113.774 10.5249 114.02 10.4199C114.267 10.3149 114.458 10.1689 114.591 9.97722C114.723 9.78553 114.792 9.55733 114.792 9.28806C114.792 8.89555 114.641 8.58977 114.335 8.37982C114.029 8.16988 113.568 8.06034 112.948 8.06034C112.327 8.06034 111.907 8.16532 111.597 8.37982C111.286 8.58977 111.108 8.91381 111.058 9.34739H108.9C108.968 8.36157 109.365 7.59026 110.091 7.03345C110.816 6.47664 111.784 6.19824 112.993 6.19824C113.783 6.19824 114.472 6.32147 115.061 6.56792C115.654 6.81438 116.106 7.15211 116.421 7.58569C116.736 8.01927 116.896 8.51674 116.896 9.07811C116.896 9.63948 116.759 10.0776 116.48 10.4473C116.202 10.817 115.8 11.1 115.271 11.2962V11.3692C115.873 11.5381 116.343 11.8439 116.681 12.2866C117.019 12.7293 117.192 13.2587 117.192 13.8657C117.192 14.4727 117.028 14.9976 116.699 15.4631C116.371 15.9241 115.896 16.2846 115.275 16.5402C114.655 16.7958 113.924 16.9236 113.089 16.9236L113.071 16.919Z" fill="#EBEBEB"/>
<path d="M119.07 16.7267V6.38477H121.138V14.5132H121.553L124.953 6.38477H128.44V16.7313H126.386V8.60286H125.957L122.543 16.7313H119.07V16.7267Z" fill="#EBEBEB"/>
<path d="M130.063 16.7271L133.167 12.2498H135.367L132.395 16.7271H130.059H130.063ZM136.608 16.7271V12.1448L136.635 12.0262V8.24262H134.358C133.965 8.24262 133.628 8.30196 133.354 8.42062C133.08 8.53928 132.87 8.71728 132.724 8.9546C132.582 9.19193 132.509 9.47033 132.509 9.79894C132.509 10.3101 132.669 10.698 132.984 10.9673C133.299 11.2366 133.755 11.3644 134.358 11.3644H137.817V13.1991H134.39C133.591 13.1991 132.893 13.0576 132.29 12.7701C131.688 12.4826 131.222 12.0855 130.894 11.5743C130.565 11.0632 130.401 10.4698 130.401 9.8035C130.401 9.13716 130.565 8.53928 130.889 8.02355C131.213 7.50782 131.674 7.10619 132.263 6.81866C132.852 6.53113 133.527 6.38965 134.289 6.38965H138.68V16.7362H136.612L136.608 16.7271Z" fill="#EBEBEB"/>
<path d="M70.1387 34.4627V24.1162H73.8492L76.049 30.2776H76.4643L78.6642 24.1162H82.3017V34.4627H80.2616V26.1426H79.8052L77.6647 32.126H74.7848L72.6443 26.1426H72.2016V34.4627H70.1478H70.1387Z" fill="#EBEBEB"/>
<path d="M84.666 34.4625V24.116H92.1875V26.0374H86.7335V32.5411H92.2605V34.4625H84.666ZM85.4647 30.1587V28.2692H91.3751V30.1587H85.4647Z" fill="#EBEBEB"/>
<path d="M93.0195 34.4627L96.8168 28.5524V29.6158L93.3162 24.1208H95.5936L98.7245 29.1594L95.3563 34.4627H93.0195ZM97.4648 30.1772L97.5105 28.2557H103.48L103.508 30.1772H97.4648ZM99.4776 34.4627V24.1162H101.504V34.4627H99.4776ZM105.593 34.4627L102.252 29.1594L105.415 24.1208H107.661L104.128 29.6158L104.201 28.5661L107.953 34.4627H105.589H105.593Z" fill="#EBEBEB"/>
<path d="M108.281 36.5576V32.5367H119.5V36.5576H117.519V34.4582H110.262V36.5576H108.281ZM109.244 33.2031L111.754 24.1162H116.026L118.537 33.2031H116.437L114.516 26.0057H113.229L111.28 33.2031H109.24H109.244Z" fill="#EBEBEB"/>
<path d="M121.624 30.8253L118.863 24.1162H121.081L123.003 28.9768H125.44L124.673 30.8253H121.629H121.624ZM122.113 34.4627L126.193 24.1162H128.334L124.253 34.4627H122.113Z" fill="#EBEBEB"/>
<path d="M129.488 34.4627V24.1162H131.556V34.4627H129.488ZM130.579 30.2182V28.2512H137.064V30.2182H130.579ZM136.197 34.4627V24.1162H138.265V34.4627H136.197Z" fill="#EBEBEB"/>
<path d="M139.672 34.4627L142.629 24.1162H146.869L149.827 34.4627H147.714L145.363 26.0103H144.094L141.758 34.4627H139.672ZM141.516 32.0393L142.077 30.1498H147.412L147.974 32.0393H141.516Z" fill="#EBEBEB"/>
<path d="M151.227 34.4627V24.1162H155.366C156.165 24.1162 156.868 24.2668 157.47 24.568C158.073 24.8693 158.547 25.2892 158.88 25.8323C159.214 26.3754 159.382 26.9961 159.382 27.6944C159.382 28.3927 159.214 29.0134 158.88 29.5565C158.547 30.0996 158.077 30.5195 157.47 30.8207C156.863 31.1219 156.16 31.2725 155.366 31.2725H152.19V29.3648H155.307C155.722 29.3648 156.073 29.3009 156.366 29.1731C156.658 29.0453 156.877 28.8536 157.032 28.6026C157.183 28.3516 157.26 28.0504 157.26 27.6944C157.26 27.1604 157.091 26.7496 156.758 26.453C156.425 26.1563 155.941 26.0103 155.311 26.0103H153.271V30.2228L153.299 30.3415V34.4627H151.231H151.227Z" fill="#EBEBEB"/>
<path d="M165.915 34.6547C164.888 34.6547 163.957 34.422 163.122 33.9519C162.287 33.4863 161.625 32.8428 161.15 32.0213C160.671 31.2044 160.434 30.2916 160.434 29.2875C160.434 28.2834 160.671 27.3706 161.15 26.5537C161.629 25.7367 162.287 25.0932 163.122 24.6277C163.957 24.1576 164.888 23.9248 165.915 23.9248C166.942 23.9248 167.868 24.1576 168.708 24.6277C169.543 25.0977 170.205 25.7367 170.68 26.5537C171.159 27.3706 171.396 28.2834 171.396 29.2875C171.396 30.2916 171.159 31.2044 170.68 32.0213C170.201 32.8383 169.543 33.4818 168.708 33.9519C167.873 34.422 166.942 34.6547 165.915 34.6547ZM165.915 32.7013C166.563 32.7013 167.143 32.5553 167.649 32.2632C168.156 31.9711 168.553 31.5695 168.831 31.0492C169.114 30.5334 169.251 29.9447 169.251 29.2829C169.251 28.6211 169.11 28.0324 168.831 27.5167C168.548 27.0009 168.156 26.5947 167.649 26.3026C167.143 26.0105 166.563 25.8645 165.915 25.8645C165.267 25.8645 164.696 26.0105 164.185 26.3026C163.674 26.5947 163.277 26.9964 162.994 27.5167C162.711 28.0324 162.574 28.6211 162.574 29.2829C162.574 29.9447 162.716 30.5334 162.994 31.0492C163.277 31.5649 163.669 31.9711 164.185 32.2632C164.696 32.5553 165.271 32.7013 165.915 32.7013Z" fill="#EBEBEB"/>
<path d="M171.646 36.5574V32.5365H182.865V36.5574H180.884V34.4579H173.627V36.5574H171.646ZM172.609 33.2028L175.12 24.116H179.392L181.902 33.2028H179.802L177.881 26.0055H176.594L174.645 33.2028H172.605H172.609Z" fill="#EBEBEB"/>
<path d="M184.252 34.4627V24.1162H186.319V34.4627H184.252ZM185.347 30.2182V28.2512H191.833V30.2182H185.347ZM190.961 34.4627V24.1162H193.028V34.4627H190.961Z" fill="#EBEBEB"/>
<path d="M194.434 34.4627L197.391 24.1162H201.631L204.588 34.4627H202.475L200.125 26.0103H198.856L196.519 34.4627H194.434ZM196.282 32.0393L196.843 30.1498H202.179L202.74 32.0393H196.282Z" fill="#EBEBEB"/>
<path d="M204.958 34.4624L208.061 29.9851H210.261L207.29 34.4624H204.953H204.958ZM211.502 34.4624V29.8802L211.53 29.7615V25.978H209.252C208.86 25.978 208.522 26.0373 208.248 26.156C207.974 26.2746 207.765 26.4526 207.618 26.69C207.477 26.9273 207.404 27.2057 207.404 27.5343C207.404 28.0455 207.564 28.4334 207.879 28.7027C208.194 28.9719 208.65 29.0997 209.252 29.0997H212.712V30.9345H209.284C208.486 30.9345 207.787 30.793 207.185 30.5054C206.582 30.2179 206.117 29.8208 205.788 29.3097C205.46 28.7985 205.295 28.2052 205.295 27.5389C205.295 26.8725 205.46 26.2746 205.784 25.7589C206.108 25.2432 206.569 24.8415 207.158 24.554C207.746 24.2665 208.422 24.125 209.184 24.125H213.574V34.4715H211.507L211.502 34.4624Z" fill="#EBEBEB"/>
<path d="M70.1387 52.1942V41.8477H78.8422V52.1942H76.7747V43.8147H72.2107V52.1942H70.1432H70.1387Z" fill="#EBEBEB"/>
<path d="M81.2109 52.1942V41.8477H85.3505C86.1492 41.8477 86.852 41.9983 87.4545 42.2995C88.0569 42.6007 88.5316 43.0206 88.8647 43.5637C89.1979 44.1068 89.3668 44.7275 89.3668 45.4258C89.3668 46.1241 89.1979 46.7448 88.8647 47.2879C88.5316 47.831 88.0615 48.2509 87.4545 48.5521C86.8474 48.8534 86.1446 49.004 85.3505 49.004H82.1739V47.0962H85.2911C85.7065 47.0962 86.0579 47.0323 86.35 46.9045C86.6421 46.7767 86.8611 46.5851 87.0163 46.334C87.1669 46.083 87.2445 45.7818 87.2445 45.4258C87.2445 44.8918 87.0756 44.4811 86.7425 44.1844C86.4093 43.8878 85.9255 43.7417 85.2957 43.7417H83.2556V47.9543L83.283 48.0729V52.1942H81.2155H81.2109Z" fill="#EBEBEB"/>
<path d="M90.9648 52.1942V41.8477H98.4863V43.7691H93.0323V50.2728H98.5593V52.1942H90.9648ZM91.759 47.8949V46.0054H97.6693V47.8949H91.759Z" fill="#EBEBEB"/>
<path d="M100.375 52.1942V41.8477H104.086L106.285 48.009H106.701L108.901 41.8477H112.538V52.1942H110.498V43.8741H110.042L107.901 49.8574H105.021L102.881 43.8741H102.438V52.1942H100.384H100.375Z" fill="#EBEBEB"/>
<path d="M114.902 52.1942V41.8477H116.97V49.9761H117.385L120.785 41.8477H124.272V52.1942H122.218V44.0657H121.789L118.376 52.1942H114.902Z" fill="#EBEBEB"/>
<path d="M125.897 52.1936L129.001 47.7164H131.2L128.229 52.1936H125.893H125.897ZM132.442 52.1936V47.6114L132.469 47.4927V43.7092H130.192C129.799 43.7092 129.462 43.7685 129.188 43.8872C128.914 44.0058 128.704 44.1838 128.558 44.4212C128.416 44.6585 128.343 44.9369 128.343 45.2655C128.343 45.7767 128.503 46.1646 128.818 46.4339C129.133 46.7031 129.589 46.8309 130.192 46.8309H133.651V48.6657H130.224C129.425 48.6657 128.727 48.5242 128.124 48.2366C127.522 47.9491 127.056 47.552 126.728 47.0409C126.399 46.5297 126.235 45.9364 126.235 45.2701C126.235 44.6037 126.399 44.0058 126.723 43.4901C127.047 42.9744 127.508 42.5727 128.097 42.2852C128.686 41.9977 129.361 41.8562 130.123 41.8562H134.514V52.2027H132.446L132.442 52.1936Z" fill="#EBEBEB"/>
<path d="M139.625 52.1935V49.6833L143.883 47.0682C144.239 46.84 144.527 46.6254 144.746 46.4246C144.965 46.2238 145.129 46.0093 145.225 45.7811C145.325 45.5529 145.371 45.2973 145.371 45.0144C145.371 44.5808 145.23 44.2339 144.942 43.9738C144.655 43.7136 144.262 43.5813 143.76 43.5813C143.199 43.5813 142.751 43.7364 142.414 44.0468C142.08 44.3572 141.893 44.7633 141.852 45.2654H139.712C139.73 44.6264 139.885 44.0331 140.177 43.49C140.469 42.9469 140.917 42.5087 141.524 42.1664C142.131 41.8241 142.884 41.6553 143.792 41.6553C144.572 41.6553 145.243 41.7922 145.809 42.0706C146.375 42.3444 146.809 42.7278 147.101 43.2162C147.397 43.7045 147.544 44.2567 147.544 44.8774C147.544 45.3795 147.461 45.8359 147.302 46.2466C147.137 46.6574 146.882 47.0408 146.526 47.4059C146.17 47.771 145.7 48.1361 145.106 48.5012L142.669 50.0074V50.304H147.767V52.1935H139.625Z" fill="#C5985E"/>
<path d="M153.71 52.3852C152.774 52.3852 151.93 52.157 151.181 51.696C150.433 51.2396 149.844 50.6007 149.415 49.7883C148.986 48.9759 148.771 48.054 148.771 47.0179C148.771 45.9819 148.986 45.06 149.415 44.2476C149.844 43.4352 150.433 42.8008 151.181 42.3399C151.93 41.8835 152.774 41.6553 153.71 41.6553C154.645 41.6553 155.49 41.8835 156.238 42.3399C156.987 42.7963 157.575 43.4352 158.004 44.2476C158.433 45.06 158.648 45.9819 158.648 47.0179C158.648 48.054 158.433 48.9759 158.004 49.7883C157.575 50.6007 156.987 51.2351 156.238 51.696C155.49 52.1524 154.645 52.3852 153.71 52.3852ZM153.71 50.4364C154.253 50.4364 154.727 50.3086 155.143 50.053C155.558 49.7974 155.887 49.414 156.133 48.8983C156.38 48.3871 156.503 47.7619 156.503 47.0225C156.503 46.2831 156.38 45.6579 156.133 45.1467C155.887 44.6356 155.558 44.2522 155.143 43.992C154.727 43.7364 154.253 43.6087 153.71 43.6087C153.167 43.6087 152.687 43.7364 152.267 43.992C151.848 44.2476 151.519 44.631 151.277 45.1467C151.035 45.6579 150.917 46.2831 150.917 47.0225C150.917 47.7619 151.035 48.3871 151.277 48.8983C151.519 49.4095 151.848 49.7928 152.267 50.053C152.687 50.3086 153.167 50.4364 153.71 50.4364Z" fill="#C5985E"/>
<path d="M159.693 52.1935V49.6833L163.952 47.0682C164.308 46.84 164.595 46.6254 164.814 46.4246C165.033 46.2238 165.198 46.0093 165.293 45.7811C165.394 45.5529 165.439 45.2973 165.439 45.0144C165.439 44.5808 165.298 44.2339 165.01 43.9738C164.723 43.7136 164.33 43.5813 163.828 43.5813C163.267 43.5813 162.82 43.7364 162.482 44.0468C162.149 44.3572 161.962 44.7633 161.921 45.2654H159.78C159.798 44.6264 159.954 44.0331 160.246 43.49C160.538 42.9469 160.985 42.5087 161.592 42.1664C162.199 41.8241 162.952 41.6553 163.86 41.6553C164.641 41.6553 165.312 41.7922 165.878 42.0706C166.443 42.3444 166.877 42.7278 167.169 43.2162C167.466 43.7045 167.612 44.2567 167.612 44.8774C167.612 45.3795 167.53 45.8359 167.37 46.2466C167.206 46.6574 166.95 47.0408 166.594 47.4059C166.238 47.771 165.768 48.1361 165.175 48.5012L162.738 50.0074V50.304H167.835V52.1935H159.693Z" fill="#C5985E"/>
<path d="M172.935 52.3859C172.068 52.3859 171.31 52.2216 170.657 51.893C170.009 51.5644 169.503 51.1125 169.151 50.5466C168.795 49.9807 168.617 49.3463 168.617 48.648C168.617 48.2737 168.677 47.8995 168.795 47.5298C168.914 47.1601 169.069 46.7996 169.27 46.4436C169.466 46.0876 169.699 45.7453 169.964 45.4076L172.743 41.8477H175.198L172.049 45.7499L171.205 45.2615C171.479 45.1611 171.762 45.0926 172.049 45.047C172.337 45.0014 172.633 44.9785 172.953 44.9785C173.811 44.9785 174.564 45.1383 175.212 45.4578C175.86 45.7772 176.358 46.2154 176.705 46.7722C177.051 47.329 177.22 47.9588 177.22 48.6571C177.22 49.3554 177.047 49.9898 176.695 50.5557C176.344 51.1217 175.847 51.5689 175.194 51.893C174.546 52.217 173.788 52.3813 172.935 52.3813V52.3859ZM172.921 50.5694C173.355 50.5694 173.733 50.4918 174.057 50.3321C174.381 50.1769 174.632 49.9533 174.81 49.6657C174.988 49.3782 175.075 49.0542 175.075 48.6891C175.075 48.3239 174.988 47.9862 174.81 47.7078C174.632 47.4294 174.381 47.2058 174.057 47.0415C173.733 46.8772 173.355 46.7996 172.921 46.7996C172.487 46.7996 172.095 46.8817 171.775 47.0415C171.456 47.2058 171.205 47.4248 171.027 47.7078C170.849 47.9908 170.762 48.3148 170.762 48.6891C170.762 49.0633 170.849 49.3782 171.027 49.6657C171.205 49.9533 171.451 50.1723 171.775 50.3321C172.095 50.4918 172.478 50.5694 172.921 50.5694Z" fill="#C5985E"/>
<defs>
<linearGradient id="paint0_linear_675_928" x1="-11.5971" y1="21.4184" x2="36.7902" y2="69.8057" gradientUnits="userSpaceOnUse">
<stop stop-color="#EAC781"/>
<stop offset="1" stop-color="#A87242"/>
</linearGradient>
<linearGradient id="paint1_linear_675_928" x1="21.4186" y1="-11.5974" x2="69.8058" y2="36.7899" gradientUnits="userSpaceOnUse">
<stop stop-color="#EAC781"/>
<stop offset="1" stop-color="#A87242"/>
</linearGradient>
<linearGradient id="paint2_linear_675_928" x1="4.91066" y1="4.91084" x2="53.2979" y2="53.2981" gradientUnits="userSpaceOnUse">
<stop stop-color="#EAC781"/>
<stop offset="1" stop-color="#A87242"/>
</linearGradient>
<linearGradient id="paint3_linear_675_928" x1="4.91048" y1="4.91077" x2="53.2978" y2="53.2981" gradientUnits="userSpaceOnUse">
<stop stop-color="#EAC781"/>
<stop offset="1" stop-color="#A87242"/>
</linearGradient>
</defs>
</svg>
