<svg width="212" height="57" viewBox="0 0 212 57" fill="none" xmlns="http://www.w3.org/2000/svg">
<path fill-rule="evenodd" clip-rule="evenodd" d="M38.8412 34.9884L42.0287 31.8009L45.2162 34.9884L42.0287 38.1759L38.8412 34.9884ZM49.0398 38.8121L52.2273 41.9995L49.0398 45.187L45.8523 41.9995L49.0398 38.8121ZM38.8412 49.0107L42.0287 52.1982L45.2162 49.0107L42.0287 45.8232L38.8412 49.0107ZM35.0176 38.8121L31.8301 41.9995L35.0176 45.187L38.205 41.9995L35.0176 38.8121Z" fill="#152551"/>
<path fill-rule="evenodd" clip-rule="evenodd" d="M54.4564 33.3926L56.0502 34.9864L52.2265 38.81L50.6328 37.2163L49.039 38.81L45.2154 34.9864L46.8091 33.3926L45.2154 31.7989L49.039 27.9752L50.6328 29.5689L52.2265 27.9752L56.0502 31.7989L54.4564 33.3926ZM38.2042 41.9975L42.0279 45.8212L45.8516 41.9975L42.0279 38.1738L38.2042 41.9975ZM37.2489 50.6003L38.8426 52.194L35.0189 56.0176L33.4252 54.4239L31.8315 56.0176L28.0078 52.194L29.6016 50.6003L28.0078 49.0065L31.8315 45.1828L33.4252 46.7766L35.0189 45.1828L38.8426 49.0065L37.2489 50.6003ZM37.2489 33.3926L38.8426 34.9864L35.0189 38.81L33.4252 37.2163L31.8315 38.81L28.0078 34.9864L29.6016 33.3926L28.0078 31.7989L31.8315 27.9752L33.4252 29.5689L35.0189 27.9752L38.8426 31.7989L37.2489 33.3926ZM54.4564 50.6003L56.0502 52.194L52.2265 56.0176L50.6328 54.4239L49.039 56.0176L45.2154 52.194L46.8091 50.6003L45.2154 49.0065L49.039 45.1828L50.6328 46.7766L52.2265 45.1828L56.0502 49.0065L54.4564 50.6003Z" fill="#C5985E"/>
<path fill-rule="evenodd" clip-rule="evenodd" d="M38.5348 13.9878L35.0391 17.4836H38.5348V20.9793L42.0305 17.4836L45.5262 13.9878L49.022 10.4921H45.5262V6.99634L42.0305 10.4921L38.5348 13.9878ZM42.0305 10.4921L45.5262 13.9878L49.022 17.4836H45.5262V20.9793L42.0305 17.4836L38.5348 13.9878L35.0391 10.4921H38.5348V6.99634L42.0305 10.4943V10.4921Z" fill="#152551"/>
<path fill-rule="evenodd" clip-rule="evenodd" d="M35.0368 3.49921H38.5326V6.99495L42.0283 3.49921L45.524 0.00128174L49.0198 3.49921H52.5177V6.99495L56.0134 10.4929L52.5177 13.9886L49.0198 17.4844H52.5155V20.9801L56.0112 24.4759L52.5155 27.9716L49.0176 24.4759H45.5219V20.9801L42.0261 24.4759L38.5304 27.9716L35.0347 24.4759H31.5389V20.9801L28.041 17.4822L31.5389 13.9864L35.0347 10.4907H31.5389V6.99495L28.041 3.49921L31.5389 0.00128174L35.0347 3.49921H35.0368ZM56.0178 3.49921L52.5221 0.00128174L49.0241 3.49921H45.5284V6.99495L42.0327 3.49921L38.537 0.00128174L35.0412 3.49921H31.5455V6.99495L28.0476 10.4929L31.5455 13.9886L35.0412 17.4844H31.5455V20.9801L28.0476 24.4781L31.5455 27.9738L35.0412 24.4781H38.537V20.9823L42.0327 24.4781L45.5284 27.9738L49.0241 24.4781H52.5221V20.9823L56.0178 17.4865L52.5221 13.9908L49.0241 10.4951H52.5199V6.99933L56.0156 3.50359L56.0178 3.49921Z" fill="#C5985E"/>
<path fill-rule="evenodd" clip-rule="evenodd" d="M14.0205 4.45239L16.246 2.22685L14.0205 0.00128174L11.7949 2.22685L14.0205 4.45239ZM19.1056 13.9886L14.0205 19.0737L11.7949 21.2993L14.0205 23.5248L16.246 25.7504L14.0205 27.976L11.7949 25.7504L14.0205 23.5248L16.246 21.2993L14.0205 19.0737L8.9354 13.9886L6.70985 16.2142L4.4843 13.9886L2.25875 16.2142L0.0332031 13.9886L2.25875 11.7631L4.4843 13.9886L6.70985 11.7631L8.9354 13.9886L14.0205 8.9035L11.7949 6.67796L14.0205 4.45239L16.246 6.67796L14.0205 8.9035L19.1056 13.9886L21.3311 11.7631L23.5567 13.9886L25.7822 16.2142L28.0078 13.9886L25.7822 11.7631L23.5567 13.9886L21.3311 16.2142L19.1056 13.9886Z" fill="#152551"/>
<path fill-rule="evenodd" clip-rule="evenodd" d="M5.1183 27.9765L11.7928 21.302L6.70766 16.2169L0.0332031 22.8914L5.1183 27.9765ZM0.0332031 5.08908L6.70985 11.7636L11.7949 6.67846L5.1183 0.00396729L0.0332031 5.08908ZM28.0056 5.08908L21.3289 11.7636L16.2439 6.67846L22.9183 0.00396729L28.0034 5.08908H28.0056ZM22.9205 27.9765L16.246 21.302L21.3311 16.2169L28.0056 22.8914L22.9205 27.9765Z" fill="#C5985E"/>
<path fill-rule="evenodd" clip-rule="evenodd" d="M22.9441 56.0176L17.8459 50.9194V45.8212H22.9441L28.0424 50.9194L22.9441 56.0176ZM5.09821 56.0176L10.1964 50.9194V45.8212H5.09821L0 50.9194L5.09821 56.0176ZM22.9441 27.9752L17.8459 33.0734V38.1738H22.9441L28.0424 33.0756L22.9441 27.9774V27.9752ZM5.09821 27.9752L10.1964 33.0734V38.1738H5.09821L0 33.0756L5.09821 27.9774V27.9752Z" fill="#C5985E"/>
<path fill-rule="evenodd" clip-rule="evenodd" d="M10.1964 27.9752V33.0734L14.0201 36.8993L17.8437 33.0734V27.9752H10.1964ZM0 38.1717H5.09821L8.92406 41.9954L5.09821 45.819H0V38.1695V38.1717ZM10.1964 56.0176V50.9194L14.0201 47.0936L17.8437 50.9194V56.0176H10.1964ZM28.0424 38.1717H22.9441L19.1183 41.9954L22.9441 45.819H28.0424V38.1695V38.1717Z" fill="#152551"/>
<path d="M69.9277 15.6231V5.4223H77.3455V7.31772H71.9675V13.7299H77.4176V15.6253H69.9277V15.6231ZM70.7148 11.3819V9.51706H76.5432V11.3819H70.7148Z" fill="#152551"/>
<path d="M79.2092 15.6231V5.4223H83.9161C84.5763 5.4223 85.1513 5.53381 85.6432 5.7568C86.1329 5.97979 86.5133 6.28804 86.78 6.68156C87.0467 7.07508 87.1801 7.5298 87.1801 8.04356C87.1801 8.55732 87.0511 8.99894 86.7931 9.36185C86.5352 9.72694 86.1832 10.0002 85.7372 10.1861V10.2582C86.2816 10.4047 86.7144 10.6889 87.0336 11.1108C87.355 11.5328 87.5146 12.0509 87.5146 12.663C87.5146 13.2752 87.3659 13.7736 87.0708 14.2152C86.7735 14.6568 86.3472 15.0022 85.7875 15.2493C85.2278 15.4963 84.561 15.621 83.7827 15.621H79.207L79.2092 15.6231ZM83.6975 13.8895C84.0669 13.8895 84.3796 13.8392 84.6375 13.7364C84.8955 13.6337 85.0923 13.4806 85.2278 13.2773C85.3634 13.074 85.4311 12.8204 85.4311 12.5209C85.4311 12.2214 85.3634 11.9678 85.2278 11.7623C85.0923 11.559 84.8977 11.4081 84.6441 11.3097C84.3905 11.2135 84.0757 11.1633 83.6975 11.1633H80.5362V9.5739H83.7128C84.1588 9.5739 84.5042 9.46459 84.7469 9.24597C84.9895 9.02735 85.112 8.72785 85.112 8.34963C85.112 8.09603 85.0595 7.88177 84.9524 7.70031C84.8452 7.52104 84.6856 7.3855 84.4714 7.29149C84.2572 7.19967 84.0057 7.15376 83.7128 7.15376H81.2205V13.8873H83.6975V13.8895Z" fill="#152551"/>
<path d="M89.3108 15.6231V5.4223H93.3902C94.1773 5.4223 94.8703 5.57097 95.4671 5.86611C96.0639 6.16343 96.5274 6.5788 96.8597 7.11223C97.1898 7.64785 97.356 8.25781 97.356 8.94865C97.356 9.63949 97.1898 10.2516 96.8597 10.7851C96.5296 11.3185 96.0661 11.7339 95.4671 12.0312C94.8703 12.3285 94.1773 12.475 93.3902 12.475H90.2574V10.5949H93.3312C93.74 10.5949 94.0854 10.5315 94.374 10.4047C94.6604 10.2779 94.879 10.092 95.0299 9.8428C95.1807 9.59576 95.255 9.29626 95.255 8.94646C95.255 8.42177 95.0889 8.01296 94.7588 7.72219C94.4287 7.43143 93.9521 7.28495 93.3312 7.28495H91.3199V11.4387L91.3483 11.5546V15.621H89.3086L89.3108 15.6231Z" fill="#152551"/>
<path d="M97.3965 15.6231L100.311 5.4223H104.493L107.407 15.6231H105.324L103.006 7.28714H101.754L99.4515 15.6231H97.3965ZM99.2176 13.2336L99.7707 11.3688H105.031L105.584 13.2336H99.2154H99.2176Z" fill="#152551"/>
<path d="M112.26 15.8122C111.394 15.8122 110.642 15.6788 110.002 15.4121C109.361 15.1454 108.852 14.7606 108.478 14.26C108.104 13.7593 107.892 13.1691 107.844 12.4891H109.971C110.019 12.9854 110.233 13.3571 110.611 13.6041C110.99 13.8511 111.534 13.9758 112.245 13.9758C112.662 13.9758 113.018 13.9233 113.316 13.8162C113.613 13.7091 113.836 13.5516 113.987 13.3418C114.138 13.1319 114.212 12.887 114.212 12.605C114.212 12.323 114.142 12.0825 114 11.8836C113.86 11.6846 113.65 11.5338 113.373 11.431C113.095 11.3283 112.758 11.278 112.36 11.278H111.02V9.54433H112.36C112.671 9.54433 112.949 9.49406 113.191 9.39131C113.434 9.28856 113.622 9.14427 113.753 8.95407C113.884 8.76387 113.95 8.53867 113.95 8.27633C113.95 7.88718 113.799 7.58986 113.497 7.37999C113.196 7.17011 112.739 7.06737 112.127 7.06737C111.514 7.06737 111.099 7.1723 110.793 7.37999C110.487 7.58986 110.31 7.90686 110.262 8.33536H108.135C108.202 7.36468 108.594 6.6039 109.309 6.05516C110.023 5.50642 110.977 5.23096 112.172 5.23096C112.949 5.23096 113.631 5.35337 114.212 5.59604C114.794 5.8387 115.242 6.17322 115.552 6.60171C115.863 7.03021 116.018 7.51991 116.018 8.07302C116.018 8.62613 115.882 9.0568 115.609 9.42189C115.336 9.78699 114.938 10.0647 114.413 10.2592V10.3314C115.006 10.4975 115.469 10.797 115.806 11.2343C116.14 11.6715 116.309 12.1918 116.309 12.793C116.309 13.3942 116.145 13.9102 115.821 14.3671C115.495 14.824 115.028 15.1782 114.415 15.4318C113.803 15.6854 113.084 15.81 112.258 15.81L112.26 15.8122Z" fill="#152551"/>
<path d="M118.178 15.6231V5.4223H120.217V13.4369H120.626L123.978 5.4223H127.417V15.6231H125.392V7.60851H124.97L121.604 15.6231H118.18H118.178Z" fill="#152551"/>
<path d="M129.02 15.6233L132.08 11.2071H134.251L131.322 15.6233H129.02ZM135.475 15.6233V11.1066L135.504 10.9907V7.26105H133.259C132.869 7.26105 132.539 7.32006 132.268 7.43593C131.995 7.5518 131.789 7.7267 131.65 7.96062C131.51 8.19455 131.437 8.47002 131.437 8.79139C131.437 9.2964 131.593 9.68115 131.903 9.9435C132.214 10.2058 132.666 10.337 133.259 10.337H136.669V12.1428H133.289C132.502 12.1428 131.811 12.0029 131.219 11.7209C130.626 11.4389 130.167 11.0454 129.842 10.5404C129.516 10.0353 129.354 9.45163 129.354 8.79139C129.354 8.13116 129.514 7.54525 129.835 7.03586C130.156 6.52648 130.607 6.13076 131.19 5.84874C131.774 5.56672 132.439 5.42682 133.186 5.42682H137.515V15.6276H135.475V15.6233Z" fill="#152551"/>
<path d="M69.9282 33.1094V22.9086H73.5857L75.7566 28.9862H76.1654L78.3363 22.9086H81.9217V33.1094H79.9104V24.9046H79.4578L77.3438 30.8073H74.5017L72.3877 24.9046H71.9504V33.1094H69.9238H69.9282Z" fill="#152551"/>
<path d="M84.252 33.1094V22.9086H91.6697V24.804H86.2917V31.2161H91.7419V33.1116H84.252V33.1094ZM85.039 28.8682V27.0033H90.8674V28.8682H85.039Z" fill="#152551"/>
<path d="M92.4883 33.1094L96.2332 27.281V28.3304L92.779 22.9086H95.0243L98.1134 27.8778L94.7903 33.1094H92.4883ZM96.8738 28.8835L96.9175 26.988H102.805L102.833 28.8835H96.8738ZM98.8545 33.1094V22.9086H100.85V33.1094H98.8545ZM104.888 33.1094L101.596 27.8778L104.713 22.9086H106.928L103.446 28.3304L103.518 27.2963L107.219 33.1116H104.886L104.888 33.1094Z" fill="#152551"/>
<path d="M107.539 35.1776V31.214H118.599V35.1776H116.647V33.1094H109.491V35.1776H107.539ZM108.486 31.8698L110.963 22.9086H115.173L117.65 31.8698H115.582L113.687 24.7734H112.419L110.495 31.8698H108.484H108.486Z" fill="#152551"/>
<path d="M120.697 29.524L117.973 22.9086H120.159L122.054 27.7029H124.459L123.7 29.524H120.699H120.697ZM121.178 33.1094L125.2 22.9086H127.314L123.292 33.1094H121.178Z" fill="#152551"/>
<path d="M128.449 33.1094V22.9086H130.489V33.1094H128.449ZM129.529 28.9272V26.988H135.926V28.9272H129.529ZM135.067 33.1094V22.9086H137.107V33.1094H135.067Z" fill="#152551"/>
<path d="M138.492 33.1094L141.406 22.9086H145.589L148.503 33.1094H146.419L144.102 24.7734H142.849L140.547 33.1094H138.492ZM140.313 30.7199L140.866 28.855H146.126L146.679 30.7199H140.311H140.313Z" fill="#152551"/>
<path d="M149.887 33.1094V22.9086H153.966C154.753 22.9086 155.446 23.0572 156.043 23.3524C156.64 23.6497 157.103 24.0651 157.436 24.5985C157.766 25.1341 157.932 25.7441 157.932 26.4349C157.932 27.1258 157.766 27.7379 157.436 28.2713C157.106 28.8048 156.642 29.2201 156.043 29.5175C155.446 29.8148 154.753 29.9613 153.966 29.9613H150.833V28.0811H153.909C154.318 28.0811 154.664 28.0177 154.952 27.8909C155.239 27.7641 155.457 27.5783 155.608 27.3291C155.759 27.082 155.833 26.7825 155.833 26.4327C155.833 25.908 155.667 25.4992 155.337 25.2085C155.007 24.9177 154.53 24.7712 153.909 24.7712H151.898V28.925L151.926 29.0409V33.1072H149.887V33.1094Z" fill="#152551"/>
<path d="M164.371 33.3002C163.361 33.3002 162.443 33.0685 161.617 32.6072C160.79 32.1459 160.143 31.5119 159.671 30.7052C159.199 29.8985 158.965 28.9999 158.965 28.0096C158.965 27.0192 159.201 26.1207 159.671 25.314C160.143 24.5073 160.79 23.8733 161.617 23.412C162.443 22.9507 163.361 22.719 164.371 22.719C165.381 22.719 166.3 22.9507 167.126 23.412C167.952 23.8733 168.599 24.5073 169.072 25.314C169.542 26.1207 169.778 27.0192 169.778 28.0096C169.778 28.9999 169.542 29.8985 169.072 30.7052C168.599 31.5119 167.952 32.1459 167.126 32.6072C166.3 33.0685 165.381 33.3002 164.371 33.3002ZM164.371 31.3764C165.012 31.3764 165.582 31.2321 166.083 30.9457C166.584 30.6593 166.973 30.2614 167.248 29.7498C167.524 29.2383 167.664 28.6589 167.664 28.0074C167.664 27.3559 167.526 26.7766 167.248 26.2672C166.971 25.7578 166.584 25.3577 166.083 25.0714C165.582 24.785 165.012 24.6407 164.371 24.6407C163.731 24.6407 163.171 24.785 162.666 25.0714C162.161 25.3577 161.77 25.7556 161.492 26.2672C161.214 26.7766 161.077 27.3581 161.077 28.0074C161.077 28.6567 161.214 29.2383 161.492 29.7498C161.77 30.2614 162.159 30.6593 162.666 30.9457C163.171 31.2321 163.739 31.3764 164.371 31.3764Z" fill="#152551"/>
<path d="M170.025 35.1776V31.214H181.085V35.1776H179.133V33.1094H171.978V35.1776H170.025ZM170.974 31.8698L173.451 22.9086H177.662L180.139 31.8698H178.071L176.175 24.7734H174.907L172.983 31.8698H170.972H170.974Z" fill="#152551"/>
<path d="M182.455 33.1094V22.9086H184.495V33.1094H182.455ZM183.533 28.9272V26.988H189.93V28.9272H183.533ZM189.071 33.1094V22.9086H191.11V33.1094H189.071Z" fill="#152551"/>
<path d="M192.496 33.1094L195.41 22.9086H199.592L202.507 33.1094H200.423L198.106 24.7734H196.853L194.551 33.1094H192.496ZM194.317 30.7199L194.87 28.855H200.13L200.683 30.7199H194.315H194.317Z" fill="#152551"/>
<path d="M202.873 33.1095L205.934 28.6934H208.105L205.175 33.1095H202.873ZM209.329 33.1095V28.5928L209.357 28.477V24.7473H207.114C206.725 24.7473 206.395 24.8063 206.124 24.9222C205.853 25.0381 205.645 25.213 205.505 25.4469C205.365 25.6808 205.293 25.9563 205.293 26.2777C205.293 26.7827 205.448 27.1674 205.759 27.4298C206.069 27.6921 206.522 27.8233 207.114 27.8233H210.525V29.6291H207.145C206.358 29.6291 205.669 29.4892 205.077 29.2072C204.484 28.9251 204.025 28.5316 203.699 28.0266C203.374 27.5216 203.212 26.9379 203.212 26.2777C203.212 25.6174 203.371 25.0315 203.693 24.5221C204.014 24.0127 204.465 23.617 205.048 23.335C205.632 23.053 206.297 22.9131 207.044 22.9131H211.373V33.1139H209.333L209.329 33.1095Z" fill="#152551"/>
<path d="M69.9277 50.5965V40.3957H78.5107V50.5965H76.471V42.3349H71.9675V50.5965H69.9277Z" fill="#152551"/>
<path d="M80.844 50.5965V40.3957H84.9234C85.7105 40.3957 86.4035 40.5444 87.0003 40.8395C87.5971 41.1346 88.0606 41.5522 88.3929 42.0856C88.723 42.6191 88.8892 43.2312 88.8892 43.922C88.8892 44.6129 88.723 45.225 88.3929 45.7585C88.0628 46.2941 87.5993 46.7073 87.0003 47.0046C86.4035 47.3019 85.7105 47.4484 84.9234 47.4484H81.7906V45.5683H84.8644C85.2732 45.5683 85.6186 45.5049 85.9072 45.3781C86.1936 45.2513 86.4122 45.0654 86.5631 44.8162C86.7139 44.5692 86.7883 44.2696 86.7883 43.9199C86.7883 43.3952 86.6221 42.9863 86.292 42.6956C85.9619 42.4048 85.4853 42.2583 84.8644 42.2583H82.8531V46.4121L82.8815 46.528V50.5943H80.8418L80.844 50.5965Z" fill="#152551"/>
<path d="M90.4609 50.5965V40.3957H97.8787V42.2911H92.5007V48.7033H97.9509V50.5987H90.4609V50.5965ZM91.248 46.3553V44.4904H97.0764V46.3553H91.248Z" fill="#152551"/>
<path d="M99.7427 50.5965V40.3957H103.4L105.571 46.4734H105.98L108.151 40.3957H111.736V50.5965H109.725V42.3917H109.272L107.158 48.2945H104.316L102.202 42.3917H101.765V50.5965H99.7383H99.7427Z" fill="#152551"/>
<path d="M114.068 50.5965V40.3957H116.108V48.4103H116.517L119.868 40.3957H123.307V50.5965H121.283V42.5819H120.861L117.494 50.5965H114.071H114.068Z" fill="#152551"/>
<path d="M124.912 50.5972L127.973 46.1811H130.144L127.214 50.5972H124.912ZM131.366 50.5972V46.0805L131.394 45.9646V42.235H129.151C128.762 42.235 128.432 42.294 128.161 42.4099C127.89 42.5257 127.682 42.7006 127.542 42.9346C127.402 43.1685 127.33 43.444 127.33 43.7653C127.33 44.2704 127.485 44.6551 127.796 44.9175C128.106 45.1798 128.559 45.311 129.151 45.311H132.562V47.119H129.182C128.395 47.119 127.706 46.979 127.114 46.697C126.521 46.415 126.062 46.0215 125.736 45.5165C125.411 45.0115 125.249 44.4278 125.249 43.7675C125.249 43.1073 125.408 42.5214 125.73 42.012C126.051 41.5026 126.501 41.1069 127.085 40.8249C127.669 40.5429 128.334 40.403 129.081 40.403H133.41V50.6038H131.37L131.366 50.5972Z" fill="#152551"/>
<path d="M138.449 50.5981V48.1211L142.647 45.5414C142.996 45.3184 143.281 45.1063 143.499 44.9074C143.718 44.7084 143.875 44.4964 143.974 44.2734C144.07 44.0504 144.12 43.7968 144.12 43.5148C144.12 43.0863 143.98 42.7452 143.698 42.4873C143.416 42.2293 143.027 42.1003 142.533 42.1003C141.98 42.1003 141.536 42.2533 141.206 42.5594C140.876 42.8655 140.69 43.2655 140.653 43.7618H138.539C138.559 43.13 138.712 42.5485 138.998 42.0128C139.284 41.4794 139.726 41.0444 140.325 40.7099C140.922 40.3754 141.667 40.207 142.561 40.207C143.329 40.207 143.991 40.3426 144.551 40.6159C145.108 40.8869 145.535 41.2652 145.825 41.7461C146.116 42.2271 146.263 42.7736 146.263 43.3858C146.263 43.8821 146.182 44.3302 146.022 44.7347C145.863 45.1369 145.607 45.5195 145.257 45.878C144.907 46.2366 144.442 46.5973 143.858 46.9558L141.453 48.4425V48.7332H146.481V50.5981H138.451H138.449Z" fill="#C5985E"/>
<path d="M152.335 50.7865C151.413 50.7865 150.582 50.5613 149.843 50.1088C149.104 49.6562 148.525 49.031 148.101 48.2286C147.679 47.4263 147.467 46.5168 147.467 45.4959C147.467 44.4749 147.679 43.5654 148.101 42.7631C148.523 41.9608 149.104 41.3355 149.843 40.883C150.582 40.4304 151.413 40.2053 152.335 40.2053C153.258 40.2053 154.089 40.4304 154.828 40.883C155.567 41.3355 156.146 41.9608 156.568 42.7631C156.99 43.5654 157.202 44.4749 157.202 45.4959C157.202 46.5168 156.99 47.4263 156.568 48.2286C156.146 49.031 155.564 49.6562 154.828 50.1088C154.089 50.5613 153.258 50.7865 152.335 50.7865ZM152.335 48.8626C152.869 48.8626 153.341 48.7358 153.75 48.4844C154.159 48.233 154.482 47.8526 154.727 47.3476C154.97 46.8426 155.092 46.2261 155.092 45.4981C155.092 44.77 154.97 44.1535 154.727 43.6463C154.484 43.1413 154.159 42.7631 153.75 42.5095C153.341 42.2559 152.871 42.1313 152.335 42.1313C151.8 42.1313 151.328 42.2581 150.914 42.5095C150.501 42.7631 150.175 43.1413 149.937 43.6463C149.699 44.1514 149.581 44.7679 149.581 45.4981C149.581 46.2282 149.699 46.8448 149.937 47.3476C150.175 47.8526 150.501 48.2308 150.914 48.4844C151.328 48.738 151.8 48.8626 152.335 48.8626Z" fill="#C5985E"/>
<path d="M158.238 50.5981V48.1211L162.436 45.5414C162.786 45.3184 163.07 45.1063 163.288 44.9074C163.507 44.7084 163.664 44.4964 163.763 44.2734C163.859 44.0504 163.909 43.7968 163.909 43.5148C163.909 43.0863 163.769 42.7452 163.487 42.4873C163.205 42.2293 162.816 42.1003 162.322 42.1003C161.769 42.1003 161.325 42.2533 160.995 42.5594C160.665 42.8655 160.479 43.2655 160.442 43.7618H158.328C158.348 43.13 158.501 42.5485 158.787 42.0128C159.073 41.4794 159.515 41.0444 160.114 40.7099C160.711 40.3754 161.456 40.207 162.351 40.207C163.118 40.207 163.78 40.3426 164.34 40.6159C164.9 40.8891 165.324 41.2652 165.615 41.7461C165.905 42.2271 166.052 42.7736 166.052 43.3858C166.052 43.8821 165.971 44.3302 165.811 44.7347C165.652 45.1369 165.396 45.5195 165.046 45.878C164.696 46.2366 164.231 46.5973 163.647 46.9558L161.242 48.4425V48.7332H166.27V50.5981H158.24H158.238Z" fill="#C5985E"/>
<path d="M171.293 50.785C170.439 50.785 169.691 50.621 169.05 50.2974C168.41 49.9739 167.914 49.5301 167.564 48.9704C167.214 48.4107 167.039 47.7877 167.039 47.0968C167.039 46.7274 167.098 46.3601 167.214 45.9972C167.33 45.6321 167.485 45.2757 167.68 44.9259C167.874 44.5761 168.102 44.2373 168.364 43.905L171.103 40.3939H173.523L170.419 44.2416L169.588 43.7607C169.859 43.6645 170.137 43.5924 170.419 43.5486C170.701 43.5049 170.996 43.483 171.309 43.483C172.155 43.483 172.898 43.6404 173.539 43.9574C174.179 44.2744 174.671 44.7051 175.01 45.2539C175.349 45.8026 175.519 46.4213 175.519 47.1121C175.519 47.803 175.347 48.426 175.001 48.9857C174.656 49.5454 174.164 49.9848 173.521 50.304C172.881 50.6254 172.137 50.785 171.291 50.785H171.293ZM171.28 48.9923C171.709 48.9923 172.083 48.9136 172.402 48.7583C172.723 48.6031 172.97 48.3845 173.145 48.1025C173.32 47.8205 173.407 47.4991 173.407 47.1405C173.407 46.782 173.32 46.4475 173.145 46.1721C172.97 45.8944 172.723 45.6758 172.402 45.5162C172.08 45.3566 171.707 45.2757 171.28 45.2757C170.854 45.2757 170.467 45.3566 170.15 45.5162C169.835 45.6758 169.588 45.8944 169.413 46.1721C169.238 46.4497 169.151 46.7711 169.151 47.1405C169.151 47.51 169.238 47.8205 169.413 48.1025C169.588 48.3845 169.833 48.6031 170.15 48.7583C170.465 48.9136 170.843 48.9923 171.28 48.9923Z" fill="#C5985E"/>
</svg>
