<svg width="152" height="41" viewBox="0 0 152 41" fill="none" xmlns="http://www.w3.org/2000/svg">
<path fill-rule="evenodd" clip-rule="evenodd" d="M27.9324 25.2082L30.2245 22.916L32.5166 25.2082L30.2245 27.5003L27.9324 25.2082ZM35.2662 27.9578L37.5584 30.2499L35.2662 32.542L32.9741 30.2499L35.2662 27.9578ZM27.9324 35.2916L30.2245 37.5838L32.5166 35.2916L30.2245 32.9995L27.9324 35.2916ZM25.1828 27.9578L22.8906 30.2499L25.1828 32.542L27.4749 30.2499L25.1828 27.9578Z" fill="#152551"/>
<path fill-rule="evenodd" clip-rule="evenodd" d="M39.1619 24.0637L40.308 25.2097L37.5583 27.9593L36.4123 26.8133L35.2662 27.9593L32.5166 25.2097L33.6627 24.0637L32.5166 22.9176L35.2662 20.168L36.4123 21.314L37.5583 20.168L40.308 22.9176L39.1619 24.0637ZM27.4749 30.2514L30.2245 33.0011L32.9741 30.2514L30.2245 27.5018L27.4749 30.2514ZM26.7879 36.4377L27.9339 37.5838L25.1843 40.3334L24.0383 39.1873L22.8922 40.3334L20.1426 37.5838L21.2886 36.4377L20.1426 35.2916L22.8922 32.542L24.0383 33.6881L25.1843 32.542L27.9339 35.2916L26.7879 36.4377ZM26.7879 24.0637L27.9339 25.2097L25.1843 27.9593L24.0383 26.8133L22.8922 27.9593L20.1426 25.2097L21.2886 24.0637L20.1426 22.9176L22.8922 20.168L24.0383 21.314L25.1843 20.168L27.9339 22.9176L26.7879 24.0637ZM39.1619 36.4377L40.308 37.5838L37.5583 40.3334L36.4123 39.1873L35.2662 40.3334L32.5166 37.5838L33.6627 36.4377L32.5166 35.2916L35.2662 32.542L36.4123 33.6881L37.5583 32.542L40.308 35.2916L39.1619 36.4377Z" fill="#C5985E"/>
<path fill-rule="evenodd" clip-rule="evenodd" d="M7.56848 10.1073L5.05469 12.6211H7.56848V15.1349L10.0823 12.6211L12.5961 10.1073L15.1099 7.59349H12.5961V5.0797L10.0823 7.59349L7.56848 10.1073ZM10.0838 7.59192L12.5976 10.1057L15.1114 12.6195H12.5976V15.1333L10.0838 12.6195L7.57005 10.1057L5.05626 7.59192H7.57005V5.07812L10.0838 7.59349V7.59192Z" fill="#152551"/>
<path fill-rule="evenodd" clip-rule="evenodd" d="M5.05612 2.56224H7.56992V5.07604L10.0837 2.56224L12.5975 0.046875L15.1113 2.56224H17.6267V5.07604L20.1405 7.59141L17.6267 10.1052L15.1113 12.619H17.6251V15.1328L20.1389 17.6466L17.6251 20.1604L15.1097 17.6466H12.5959V15.1328L10.0821 17.6466L7.56835 20.1604L5.05455 17.6466H2.54076V15.1328L0.0253906 12.6174L2.54076 10.1036L5.05455 7.58984H2.54076V5.07604L0.0253906 2.56224L2.54076 0.046875L5.05455 2.56224H5.05612ZM20.142 2.56224L17.6282 0.046875L15.1129 2.56224H12.5991V5.07604L10.0853 2.56224L7.57149 0.046875L5.05769 2.56224H2.5439V5.07604L0.0285348 7.59141L2.5439 10.1052L5.05769 12.619H2.5439V15.1328L0.0285348 17.6482L2.5439 20.162L5.05769 17.6482H7.57149V15.1344L10.0853 17.6482L12.5991 20.162L15.1129 17.6482H17.6282V15.1344L20.142 12.6206L17.6282 10.1068L15.1129 7.59298H17.6267V5.07919L20.1405 2.56539L20.142 2.56224Z" fill="#C5985E"/>
<path fill-rule="evenodd" clip-rule="evenodd" d="M30.2253 0L28.3969 1.85352V4.59054L30.2253 6.41892L32.0536 4.59054V1.85352L30.2253 0ZM26.567 10.0835L30.2253 13.7418L33.882 10.0835L30.2253 6.42679L26.567 10.0835ZM30.2253 13.7465L28.3969 15.5749V18.3119L30.2253 20.1654L32.0536 18.3119V15.5749L30.2253 13.7465ZM33.8883 10.0835L35.7166 11.9119H38.4537L40.3056 10.0835L38.4537 8.25513H35.7166L33.8883 10.0835ZM20.1387 10.0835L21.9953 11.9119H24.7324L26.5607 10.0835L24.7324 8.25513H21.9953L20.1387 10.0835Z" fill="#152551"/>
<path d="M28.4158 11.9367L24.7104 11.9336L20.1387 16.4612V20.1651H23.8441L28.3718 15.595L28.4158 11.9367Z" fill="#C5985E"/>
<path d="M40.3045 0H36.599L32.0729 4.5717L32.0273 8.22999L35.7328 8.23156L40.3045 3.70546V0Z" fill="#C5985E"/>
<path d="M28.3686 8.27716L28.3718 4.5717L23.8441 0H20.1387V3.70546L24.7104 8.23156L28.3686 8.27716Z" fill="#C5985E"/>
<path d="M40.3077 20.1662V16.4623L35.736 11.9346L32.0777 11.8906L32.0762 15.5961L36.6023 20.1662H40.3077Z" fill="#C5985E"/>
<path fill-rule="evenodd" clip-rule="evenodd" d="M16.4992 40.3232L12.8331 36.6571V32.9909H16.4992L20.1654 36.6571L16.4992 40.3232ZM3.66615 40.3232L7.33229 36.6571V32.9909H3.66615L0 36.6571L3.66615 40.3232ZM16.4992 20.1562L12.8331 23.8224V27.4901H16.4992L20.1654 23.824L16.4992 20.1578V20.1562ZM3.66615 20.1562L7.33229 23.8224V27.4901H3.66615L0 23.824L3.66615 20.1578V20.1562Z" fill="#C5985E"/>
<path fill-rule="evenodd" clip-rule="evenodd" d="M7.33229 20.1562V23.8224L10.0819 26.5736L12.8315 23.8224V20.1562H7.33229ZM0 27.4901H3.66615L6.41733 30.2398L3.66615 32.9894H0V27.4886V27.4901ZM7.33229 40.3232V36.6571L10.0819 33.9059L12.8315 36.6571V40.3232H7.33229ZM20.1654 27.4901H16.4992L13.748 30.2398L16.4992 32.9894H20.1654V27.4886V27.4901Z" fill="#152551"/>
<path d="M50.2871 11.2573V3.92188H55.6213V5.28492H51.7539V9.89588H55.6731V11.2589H50.2871V11.2573ZM50.8531 8.20901V6.868H55.0443V8.20901H50.8531Z" fill="#152551"/>
<path d="M56.9606 11.2573V3.92188H60.3453C60.8201 3.92188 61.2335 4.00206 61.5873 4.16241C61.9394 4.32277 62.213 4.54443 62.4048 4.82741C62.5966 5.11039 62.6924 5.43738 62.6924 5.80683C62.6924 6.17627 62.5997 6.49384 62.4142 6.75481C62.2287 7.01735 61.9756 7.21387 61.6549 7.3475V7.39939C62.0463 7.50472 62.3576 7.70908 62.5871 8.0125C62.8182 8.31591 62.933 8.68852 62.933 9.12871C62.933 9.5689 62.8261 9.92732 62.6138 10.2449C62.4 10.5624 62.0935 10.8109 61.691 10.9885C61.2886 11.1662 60.8091 11.2558 60.2494 11.2558H56.959L56.9606 11.2573ZM60.1881 10.0106C60.4538 10.0106 60.6786 9.97449 60.8641 9.9006C61.0496 9.82671 61.1911 9.71669 61.2886 9.57048C61.386 9.42427 61.4348 9.24191 61.4348 9.02496C61.4348 8.80801 61.386 8.62719 61.2886 8.47941C61.1911 8.3332 61.0512 8.22476 60.8688 8.15401C60.6864 8.08484 60.4601 8.04865 60.1881 8.04865H57.9148V6.90573H60.1991C60.5198 6.90573 60.7682 6.82712 60.9427 6.66991C61.1172 6.5127 61.2052 6.29735 61.2052 6.02537C61.2052 5.84458 61.1675 5.68895 61.0905 5.55846C61.0134 5.42955 60.8987 5.33206 60.7446 5.26446C60.5905 5.19843 60.4098 5.16544 60.1991 5.16544H58.4069V10.006H60.1881V10.0106Z" fill="#152551"/>
<path d="M64.2262 11.2573V3.92188H67.1597C67.7257 3.92188 68.224 4.02878 68.6532 4.24102C69.0824 4.45482 69.4157 4.75352 69.6547 5.13711C69.892 5.52228 70.0115 5.96092 70.0115 6.4577C70.0115 6.95449 69.892 7.39466 69.6547 7.77826C69.4173 8.16185 69.084 8.46054 68.6532 8.67435C68.224 8.88815 67.7257 8.99349 67.1597 8.99349H64.9069V7.6415H67.1173C67.4113 7.6415 67.6597 7.59589 67.8672 7.50471C68.0731 7.41353 68.2303 7.27989 68.3388 7.10067C68.4473 6.92302 68.5007 6.70767 68.5007 6.45613C68.5007 6.07882 68.3813 5.78482 68.1439 5.57573C67.9065 5.36664 67.5638 5.26131 67.1173 5.26131H65.6709V8.24831L65.6914 8.33164V11.2558H64.2246L64.2262 11.2573Z" fill="#152551"/>
<path d="M70.041 11.2573L72.1366 3.92188H75.1441L77.2397 11.2573H75.7415L74.075 5.26289H73.1742L71.5188 11.2573H70.041ZM71.3506 9.53901L71.7483 8.19803H75.5308L75.9285 9.53901H71.349H71.3506Z" fill="#152551"/>
<path d="M80.7264 11.3941C80.1039 11.3941 79.5631 11.2983 79.1025 11.1065C78.6418 10.9147 78.2755 10.638 78.0067 10.278C77.7379 9.91795 77.5854 9.49346 77.5508 9.00454H79.0804C79.115 9.36141 79.2691 9.62711 79.5411 9.80633C79.813 9.98398 80.2045 10.0736 80.7154 10.0736C81.0157 10.0736 81.272 10.0359 81.4858 9.95882C81.6996 9.88179 81.8599 9.76857 81.9684 9.61765C82.0769 9.46672 82.1303 9.29067 82.1303 9.08787C82.1303 8.88506 82.08 8.71213 81.9778 8.56906C81.8772 8.426 81.7263 8.31752 81.5266 8.24363C81.327 8.16974 81.0849 8.13359 80.7988 8.13359H79.835V6.88692H80.7988C81.022 6.88692 81.2216 6.85077 81.3962 6.77688C81.5707 6.70299 81.7059 6.59923 81.8002 6.46246C81.8945 6.32568 81.9417 6.16374 81.9417 5.97509C81.9417 5.69525 81.8332 5.48147 81.6162 5.33055C81.3993 5.17963 81.0707 5.10571 80.6305 5.10571C80.1903 5.10571 79.8916 5.1812 79.6716 5.33055C79.4515 5.48147 79.3241 5.70941 79.2895 6.01754H77.7599C77.8086 5.31952 78.09 4.77244 78.6041 4.37784C79.1182 3.98324 79.8036 3.78516 80.6635 3.78516C81.2216 3.78516 81.7121 3.87318 82.1303 4.04769C82.5501 4.22219 82.8708 4.46274 83.094 4.77087C83.3173 5.079 83.4289 5.43115 83.4289 5.82889C83.4289 6.22664 83.3314 6.53633 83.1349 6.79887C82.94 7.06141 82.6523 7.26108 82.275 7.401V7.45289C82.701 7.57237 83.0343 7.78773 83.2764 8.10215C83.5169 8.41657 83.638 8.79072 83.638 9.22305C83.638 9.65538 83.5201 10.0264 83.2874 10.355C83.0531 10.6836 82.7167 10.9382 82.2765 11.1206C81.8363 11.303 81.3191 11.3926 80.7249 11.3926L80.7264 11.3941Z" fill="#152551"/>
<path d="M84.9824 11.2573V3.92188H86.4492V9.68524H86.7432L89.1532 3.92188H91.6261V11.2573H90.1704V5.49398H89.867L87.4459 11.2573H84.984H84.9824Z" fill="#152551"/>
<path d="M92.7793 11.2581L94.9802 8.08246H96.5413L94.4347 11.2581H92.7793ZM97.4217 11.2581V8.01011L97.4422 7.92678V5.2448H95.8276C95.5478 5.2448 95.3104 5.28725 95.1154 5.37058C94.9189 5.4539 94.7711 5.57965 94.6705 5.74787C94.5699 5.91608 94.518 6.11417 94.518 6.34527C94.518 6.70843 94.6297 6.98512 94.8529 7.17378C95.0761 7.36243 95.4016 7.45673 95.8276 7.45673H98.2801V8.75529H95.8496C95.2837 8.75529 94.7869 8.65468 94.3608 8.45188C93.9348 8.24908 93.6046 7.96612 93.3704 7.60296C93.1362 7.2398 93.0198 6.82005 93.0198 6.34527C93.0198 5.8705 93.1346 5.44917 93.3657 5.08287C93.5968 4.71657 93.9206 4.43203 94.3404 4.22923C94.7601 4.02642 95.2381 3.92578 95.7757 3.92578H98.8885V11.2613H97.4217V11.2581Z" fill="#152551"/>
<path d="M50.2863 23.8316V16.4961H52.9165L54.4776 20.8666H54.7716L56.3327 16.4961H58.9109V23.8316H57.4646V17.9314H57.1392L55.6189 22.1761H53.5752L52.055 17.9314H51.7405V23.8316H50.2832H50.2863Z" fill="#152551"/>
<path d="M60.5859 23.8316V16.4961H65.9201V17.8591H62.0527V22.4701H65.972V23.8331H60.5859V23.8316ZM61.1519 20.7832V19.4422H65.3431V20.7832H61.1519Z" fill="#152551"/>
<path d="M66.5078 23.8316L69.2008 19.6403V20.3949L66.7169 16.4961H68.3315L70.5528 20.0695L68.1632 23.8316H66.5078ZM69.6615 20.7927L69.6929 19.4297H73.9266L73.947 20.7927H69.6615ZM71.0858 23.8316V16.4961H72.5211V23.8316H71.0858ZM75.4248 23.8316L73.0572 20.0695L75.299 16.4961H76.8916L74.3872 20.3949L74.4391 19.6513L77.1006 23.8331H75.4232L75.4248 23.8316Z" fill="#152551"/>
<path d="M77.332 25.3207V22.4705H85.2853V25.3207H83.8814V23.8319H78.7359V25.3207H77.332ZM78.0128 22.9421L79.7939 16.498H82.8218L84.603 22.9421H83.1158L81.7528 17.8391H80.841L79.4575 22.9421H78.0112H78.0128Z" fill="#152551"/>
<path d="M86.7967 21.2549L84.8379 16.4977H86.41L87.773 19.9453H89.5023L88.9568 21.2549H86.7983H86.7967ZM87.1426 23.8316L90.0353 16.4961H91.5555L88.6628 23.8316H87.1426Z" fill="#152551"/>
<path d="M92.3711 23.8316V16.4961H93.8379V23.8316H92.3711ZM93.1477 20.8241V19.4297H97.7477V20.8241H93.1477ZM97.1299 23.8316V16.4961H98.5966V23.8316H97.1299Z" fill="#152551"/>
<path d="M99.5898 23.8316L101.685 16.4961H104.693L106.789 23.8316H105.29L103.624 17.8371H102.723L101.068 23.8316H99.5898ZM100.899 22.1132L101.297 20.7723H105.08L105.477 22.1132H100.898H100.899Z" fill="#152551"/>
<path d="M107.785 23.8316V16.4961H110.719C111.285 16.4961 111.783 16.603 112.212 16.8152C112.641 17.029 112.975 17.3277 113.214 17.7113C113.451 18.0965 113.57 18.5351 113.57 19.0319C113.57 19.5287 113.451 19.9689 113.214 20.3525C112.976 20.7361 112.643 21.0348 112.212 21.2486C111.783 21.4624 111.285 21.5677 110.719 21.5677H108.466V20.2157H110.678C110.972 20.2157 111.22 20.1701 111.428 20.0789C111.634 19.9877 111.791 19.8541 111.899 19.6749C112.008 19.4973 112.061 19.2819 112.061 19.0303C112.061 18.653 111.942 18.359 111.704 18.15C111.467 17.9409 111.124 17.8355 110.678 17.8355H109.231V20.8225L109.252 20.9059V23.83H107.785V23.8316Z" fill="#152551"/>
<path d="M118.202 23.9684C117.476 23.9684 116.816 23.8033 116.221 23.47C115.627 23.1383 115.162 22.6824 114.822 22.1023C114.483 21.5222 114.314 20.876 114.314 20.1639C114.314 19.4517 114.484 18.8056 114.822 18.2254C115.162 17.6453 115.627 17.1894 116.221 16.8577C116.816 16.526 117.476 16.3594 118.202 16.3594C118.929 16.3594 119.589 16.526 120.183 16.8577C120.777 17.1894 121.243 17.6453 121.582 18.2254C121.92 18.8056 122.09 19.4517 122.09 20.1639C122.09 20.876 121.92 21.5222 121.582 22.1023C121.243 22.6824 120.777 23.1383 120.183 23.47C119.589 23.8017 118.929 23.9684 118.202 23.9684ZM118.202 22.5849C118.663 22.5849 119.073 22.4811 119.433 22.2752C119.793 22.0692 120.073 21.7831 120.271 21.4168C120.471 21.0505 120.57 20.6324 120.57 20.1639C120.57 19.6954 120.471 19.2788 120.271 18.9125C120.072 18.5462 119.793 18.2601 119.433 18.0525C119.073 17.8466 118.663 17.7428 118.202 17.7428C117.742 17.7428 117.339 17.8466 116.976 18.0525C116.613 18.2585 116.331 18.5446 116.132 18.9125C115.932 19.2803 115.833 19.6969 115.833 20.1639C115.833 20.6308 115.932 21.049 116.132 21.4168C116.331 21.7831 116.611 22.0692 116.976 22.2752C117.339 22.4811 117.748 22.5849 118.202 22.5849Z" fill="#152551"/>
<path d="M122.268 25.3207V22.4705H130.221V25.3207H128.817V23.8319H123.671V25.3207H122.268ZM122.95 22.9421L124.731 16.498H127.759L129.54 22.9421H128.053L126.69 17.8391H125.778L124.395 22.9421H122.948H122.95Z" fill="#152551"/>
<path d="M131.205 23.8316V16.4961H132.672V23.8316H131.205ZM131.98 20.8241V19.4297H136.58V20.8241H131.98ZM135.962 23.8316V16.4961H137.429V23.8316H135.962Z" fill="#152551"/>
<path d="M138.426 23.8316L140.521 16.4961H143.529L145.624 23.8316H144.126L142.46 17.8371H141.559L139.904 23.8316H138.426ZM139.735 22.1132L140.133 20.7723H143.916L144.313 22.1132H139.734H139.735Z" fill="#152551"/>
<path d="M145.887 23.8323L148.088 20.6567H149.649L147.542 23.8323H145.887ZM150.529 23.8323V20.5843L150.55 20.501V17.819H148.937C148.657 17.819 148.419 17.8615 148.224 17.9448C148.03 18.0281 147.88 18.1539 147.78 18.3221C147.679 18.4903 147.627 18.6884 147.627 18.9195C147.627 19.2826 147.739 19.5593 147.962 19.748C148.185 19.9366 148.511 20.0309 148.937 20.0309H151.389V21.3295H148.959C148.393 21.3295 147.897 21.2289 147.471 21.0261C147.045 20.8233 146.715 20.5403 146.481 20.1772C146.247 19.814 146.13 19.3943 146.13 18.9195C146.13 18.4447 146.245 18.0234 146.476 17.6571C146.707 17.2908 147.031 17.0062 147.451 16.8034C147.871 16.6006 148.349 16.5 148.886 16.5H151.999V23.8355H150.532L150.529 23.8323Z" fill="#152551"/>
<path d="M50.2871 36.4077V29.0723H56.4592V36.4077H54.9924V30.4667H51.7539V36.4077H50.2871Z" fill="#152551"/>
<path d="M58.1363 36.4077V29.0723H61.0699C61.6358 29.0723 62.1342 29.1792 62.5634 29.3914C62.9926 29.6052 63.3259 29.9039 63.5648 30.2875C63.8022 30.6727 63.9217 31.1113 63.9217 31.6081C63.9217 32.1049 63.8022 32.5451 63.5648 32.9286C63.3274 33.3122 62.9941 33.611 62.5634 33.8248C62.1342 34.0386 61.6358 34.1439 61.0699 34.1439H58.8171V32.7919H61.0274C61.3214 32.7919 61.5698 32.7463 61.7773 32.6551C61.9833 32.5639 62.1405 32.4303 62.249 32.2511C62.3574 32.0734 62.4109 31.8581 62.4109 31.6065C62.4109 31.2292 62.2914 30.9352 62.054 30.7261C61.8166 30.517 61.4739 30.4117 61.0274 30.4117H59.5811V33.3987L59.6015 33.482V36.4062H58.1348L58.1363 36.4077Z" fill="#152551"/>
<path d="M65.0527 36.4077V29.0723H70.3869V30.4353H66.5195V35.0463H70.4388V36.4093H65.0527V36.4077ZM65.6187 33.3578V32.0169H69.8099V33.3578H65.6187Z" fill="#152551"/>
<path d="M71.7258 36.4077V29.0723H74.3559L75.917 33.4427H76.211L77.7721 29.0723H80.3504V36.4077H78.904V30.5076H78.5786L77.0584 34.7523H75.0146L73.4944 30.5076H73.18V36.4077H71.7227H71.7258Z" fill="#152551"/>
<path d="M82.0254 36.4077V29.0723H83.4922V34.8356H83.7861L86.1962 29.0723H88.6691V36.4077H87.2133V30.6444H86.9099L84.4889 36.4077H82.027H82.0254Z" fill="#152551"/>
<path d="M89.8262 36.4085L92.0271 33.2328H93.5882L91.4816 36.4085H89.8262ZM94.467 36.4085V33.1605L94.4875 33.0772V30.3952H92.8745C92.5946 30.3952 92.3573 30.4376 92.1623 30.521C91.9674 30.6043 91.818 30.73 91.7174 30.8983C91.6168 31.0665 91.5649 31.2646 91.5649 31.4957C91.5649 31.8588 91.6765 32.1355 91.8998 32.3242C92.123 32.5128 92.4484 32.6072 92.8745 32.6072H95.327V33.9057H92.8965C92.3305 33.9057 91.8353 33.8051 91.4093 33.6023C90.9832 33.3995 90.6531 33.1165 90.4189 32.7533C90.1846 32.3902 90.0683 31.9704 90.0683 31.4957C90.0683 31.0209 90.183 30.5996 90.4141 30.2333C90.6452 29.867 90.9691 29.5824 91.3888 29.3796C91.8086 29.1768 92.2865 29.0762 92.8242 29.0762H95.9369V36.4116H94.4702L94.467 36.4085Z" fill="#152551"/>
<path d="M99.5586 36.4078V34.6266L102.577 32.7715C102.829 32.6111 103.033 32.4586 103.19 32.3156C103.347 32.1725 103.461 32.02 103.531 31.8597C103.6 31.6993 103.637 31.5169 103.637 31.3157C103.637 31.0076 103.536 30.7623 103.333 30.5768C103.13 30.3913 102.851 30.2986 102.495 30.2986C102.098 30.2986 101.778 30.4086 101.541 30.6287C101.304 30.8488 101.17 31.1365 101.143 31.4934H99.623C99.6372 31.039 99.7472 30.6208 99.9532 30.2357C100.159 29.8521 100.477 29.5392 100.907 29.2971C101.337 29.0566 101.873 28.9355 102.516 28.9355C103.068 28.9355 103.544 29.033 103.946 29.2295C104.347 29.4245 104.654 29.6965 104.863 30.0423C105.072 30.3882 105.177 30.7812 105.177 31.2214C105.177 31.5783 105.119 31.9005 105.004 32.1914C104.89 32.4822 104.706 32.7558 104.454 33.0136C104.203 33.2714 103.868 33.5308 103.448 33.7886L101.719 34.8577V35.0668H105.335V36.4078H99.5602H99.5586Z" fill="#C5985E"/>
<path d="M109.546 36.5445C108.883 36.5445 108.285 36.3826 107.754 36.0572C107.222 35.7318 106.806 35.2821 106.501 34.7052C106.197 34.1282 106.045 33.4742 106.045 32.74C106.045 32.0059 106.197 31.3519 106.501 30.7749C106.804 30.1979 107.222 29.7483 107.754 29.4229C108.285 29.0975 108.883 28.9355 109.546 28.9355C110.209 28.9355 110.807 29.0975 111.338 29.4229C111.87 29.7483 112.286 30.1979 112.59 30.7749C112.893 31.3519 113.045 32.0059 113.045 32.74C113.045 33.4742 112.893 34.1282 112.59 34.7052C112.286 35.2821 111.868 35.7318 111.338 36.0572C110.807 36.3826 110.209 36.5445 109.546 36.5445ZM109.546 35.1611C109.93 35.1611 110.269 35.0699 110.563 34.8891C110.857 34.7083 111.09 34.4348 111.266 34.0716C111.44 33.7084 111.528 33.2651 111.528 32.74C111.528 32.215 111.44 31.7732 111.266 31.41C111.091 31.0469 110.857 30.7749 110.563 30.5926C110.269 30.4102 109.931 30.3206 109.546 30.3206C109.161 30.3206 108.821 30.4118 108.524 30.5926C108.227 30.7749 107.993 31.0469 107.821 31.41C107.65 31.7732 107.565 32.2165 107.565 32.74C107.565 33.2635 107.65 33.7084 107.821 34.0716C107.993 34.4348 108.227 34.7067 108.524 34.8891C108.821 35.0715 109.161 35.1611 109.546 35.1611Z" fill="#C5985E"/>
<path d="M113.789 36.4078V34.6266L116.808 32.7715C117.059 32.6111 117.263 32.4586 117.421 32.3156C117.578 32.1725 117.691 32.02 117.762 31.8597C117.831 31.6993 117.867 31.5169 117.867 31.3157C117.867 31.0076 117.766 30.7623 117.564 30.5768C117.361 30.3913 117.081 30.2986 116.726 30.2986C116.328 30.2986 116.009 30.4086 115.771 30.6287C115.534 30.8488 115.4 31.1365 115.374 31.4934H113.854C113.868 31.039 113.978 30.6208 114.184 30.2357C114.39 29.8521 114.707 29.5392 115.138 29.2971C115.567 29.0566 116.103 28.9355 116.746 28.9355C117.298 28.9355 117.774 29.033 118.177 29.2295C118.579 29.4245 118.884 29.6965 119.093 30.0423C119.302 30.3882 119.408 30.7812 119.408 31.2214C119.408 31.5783 119.35 31.9005 119.235 32.1914C119.12 32.4822 118.936 32.7558 118.685 33.0136C118.433 33.2714 118.098 33.5308 117.678 33.7886L115.949 34.8577V35.0668H119.565V36.4078H113.791H113.789Z" fill="#C5985E"/>
<path d="M123.178 36.5449C122.564 36.5449 122.026 36.427 121.565 36.1943C121.105 35.9601 120.748 35.6425 120.496 35.2416C120.245 34.8391 120.119 34.3911 120.119 33.8943C120.119 33.6286 120.162 33.3645 120.245 33.1035C120.328 32.8426 120.44 32.5847 120.58 32.3332C120.72 32.0817 120.883 31.838 121.072 31.599L123.042 29.0742H124.782L122.55 31.8411L121.952 31.4953C122.147 31.4261 122.347 31.3742 122.55 31.3428C122.752 31.3114 122.965 31.2956 123.189 31.2956C123.798 31.2956 124.332 31.4088 124.793 31.6368C125.254 31.8631 125.607 32.1744 125.851 32.569C126.095 32.9636 126.217 33.4085 126.217 33.9053C126.217 34.4021 126.093 34.8501 125.845 35.2526C125.596 35.6551 125.243 35.9711 124.78 36.2006C124.32 36.4317 123.785 36.5464 123.177 36.5464L123.178 36.5449ZM123.169 35.2558C123.477 35.2558 123.746 35.1991 123.976 35.0875C124.205 34.9759 124.384 34.8187 124.51 34.6159C124.636 34.4131 124.699 34.1836 124.699 33.9242C124.699 33.6648 124.636 33.4258 124.51 33.2277C124.384 33.0281 124.207 32.8709 123.976 32.7561C123.744 32.6414 123.476 32.5832 123.169 32.5832C122.862 32.5832 122.584 32.6414 122.356 32.7561C122.13 32.8709 121.952 33.0281 121.826 33.2277C121.701 33.4274 121.638 33.6585 121.638 33.9242C121.638 34.1899 121.701 34.4131 121.826 34.6159C121.952 34.8187 122.128 34.9759 122.356 35.0875C122.583 35.1991 122.855 35.2558 123.169 35.2558Z" fill="#C5985E"/>
</svg>
