<svg width="22" height="15" viewBox="0 0 22 15" fill="none" xmlns="http://www.w3.org/2000/svg">
<path d="M20.5 5.6475L16.27 2.0775C12.99 -0.6925 8.22 -0.6925 4.94 2.0775L0.71 5.6475C0.26 6.0275 0 6.5875 0 7.1775C0 7.7675 0.26 8.3275 0.71 8.7075L4.94 12.2775C6.58 13.6575 8.59 14.3575 10.61 14.3575C12.63 14.3575 14.64 13.6675 16.28 12.2775L20.51 8.7075C20.96 8.3275 21.22 7.7675 21.22 7.1775C21.22 6.5875 20.96 6.0275 20.51 5.6475H20.5ZM14.98 10.7475C12.44 12.8875 8.76 12.8875 6.22 10.7475L1.99 7.1775L6.22 3.6075C7.49 2.5375 9.04 1.9975 10.6 1.9975C12.16 1.9975 13.71 2.5375 14.98 3.6075L19.21 7.1775L14.98 10.7475Z" fill="#152551"/>
<path d="M10.6009 3.28906C8.45094 3.28906 6.71094 5.03906 6.71094 7.17906C6.71094 9.31906 8.46094 11.0691 10.6009 11.0691C12.7409 11.0691 14.4909 9.31906 14.4909 7.17906C14.4909 5.03906 12.7409 3.28906 10.6009 3.28906ZM10.6009 9.06906C9.56094 9.06906 8.71094 8.21906 8.71094 7.17906C8.71094 6.13906 9.56094 5.28906 10.6009 5.28906C11.6409 5.28906 12.4909 6.13906 12.4909 7.17906C12.4909 8.21906 11.6409 9.06906 10.6009 9.06906Z" fill="#152551"/>
</svg>
