<svg width="30" height="30" viewBox="0 0 30 30" fill="none" xmlns="http://www.w3.org/2000/svg">
<path d="M15.2857 10.0118V10.007C12.6951 9.8733 10.6761 11.6665 10.2286 14.4788C9.85961 16.8068 10.5144 19.6416 11.0724 19.7896C11.3398 19.8544 12.013 19.3101 12.4325 18.8906C13.1262 19.3701 13.9338 19.658 14.7741 19.7248C17.4589 19.8538 19.7521 17.8102 19.9328 15.1289C20.0379 12.4414 17.9711 10.1659 15.2857 10.0118Z" fill="#C5985E"/>
<path d="M19.0319 0H10.9681C1.93511 0 0 1.93784 0 10.9681V19.0319C0 28.0649 1.93784 30 10.9681 30H19.0319C28.0649 30 30 28.0622 30 19.0319V10.9681C30 1.93511 28.0615 0 19.0319 0ZM15.2074 24.5562C13.3125 24.5562 12.4319 24.2793 10.902 23.1729C9.93406 24.4177 6.86804 25.3904 6.73435 23.7261C6.73435 22.4765 6.45741 21.4213 6.14433 20.2685C5.77122 18.8484 5.34696 17.2673 5.34696 14.9761C5.34696 9.50434 9.83721 5.3872 15.1569 5.3872C20.4766 5.3872 24.653 9.70693 24.653 15.0266C24.6708 20.2644 20.4452 24.5275 15.2074 24.5555V24.5562Z" fill="#C5985E"/>
</svg>
