<svg width="30" height="30" viewBox="0 0 30 30" fill="none" xmlns="http://www.w3.org/2000/svg">
<path d="M27.8904 2.1096C25.7808 0 22.3871 0 15.5997 0H14.4003C7.61289 0 4.21919 0 2.1096 2.1096C0 4.21919 0 7.61289 0 14.4003V15.5997C0 22.3871 0 25.7808 2.1096 27.8904C4.21919 30 7.61289 30 14.4003 30H15.5997C22.3871 30 25.7808 30 27.8904 27.8904C30 25.7808 30 22.3871 30 15.5997V14.4003C30 7.61289 30 4.21919 27.8904 2.1096ZM21.4558 21.611C20.6938 19.2368 18.7923 17.3989 16.2806 17.1484V21.611H15.8925C9.05574 21.611 5.15405 16.9226 4.99177 9.12277H8.41722C8.5301 14.8483 11.056 17.2719 13.0562 17.7728V9.12277H16.2806V14.0616C18.2561 13.85 20.3304 11.5992 21.0289 9.12277H24.2533C23.7171 12.1743 21.4664 14.4214 19.8648 15.3492C21.4664 16.1007 24.0275 18.0621 25.0012 21.611H21.4523H21.4558Z" fill="#C5985E"/>
</svg>
