<svg width="110" height="31" viewBox="0 0 110 31" fill="none" xmlns="http://www.w3.org/2000/svg">
<path fill-rule="evenodd" clip-rule="evenodd" d="M35.561 20.0278V23.8218H41.723V25.9987H33.2695V12.0043H41.6301V14.2123H35.561V17.8508H41.1347V20.0278H35.561Z" fill="#152551"/>
<path fill-rule="evenodd" clip-rule="evenodd" d="M51.1028 20.8683C52.0937 21.3347 52.5891 22.1122 52.5891 23.1696C52.5891 24.0092 52.3104 24.7245 51.7221 25.2221C51.1337 25.7508 50.3596 25.9995 49.3378 25.9995H44.2285V16.0168H48.9352C49.9571 16.0168 50.7312 16.2656 51.2886 16.7632C51.8459 17.2608 52.1556 17.945 52.1556 18.7535C52.1556 19.6865 51.815 20.4018 51.1337 20.8372M48.7494 17.8517H46.2722V20.0597H48.7494C49.6164 20.0597 50.05 19.6865 50.05 18.9401C50.05 18.1938 49.6164 17.8517 48.7494 17.8517ZM46.2412 24.1336H49.09C49.988 24.1336 50.4525 23.7293 50.4525 22.9519C50.4525 22.6098 50.3286 22.3299 50.0809 22.1433C49.8332 21.9567 49.5236 21.8634 49.09 21.8634H46.2412V24.1336Z" fill="#152551"/>
<path fill-rule="evenodd" clip-rule="evenodd" d="M60.6418 15.7361C62.0043 15.7361 63.15 16.2337 64.1409 17.291C65.1008 18.2862 65.5962 19.5301 65.5962 21.0229C65.5962 22.5156 65.1008 23.7596 64.1409 24.7547C63.1809 25.781 62.0043 26.2786 60.6418 26.2786C59.1555 26.2786 57.9788 25.7188 57.1737 24.5992V30.0104H55.0371V16.016H57.1737V17.4465C57.9788 16.2959 59.1555 15.7361 60.6418 15.7361ZM58.0407 23.2931C58.6291 23.884 59.3722 24.1949 60.3012 24.1949C61.2301 24.1949 61.9423 23.884 62.5616 23.2931C63.15 22.6711 63.4596 21.9247 63.4596 20.9918C63.4596 20.0588 63.15 19.3124 62.5616 18.7216C61.9733 18.0996 61.2301 17.7886 60.3012 17.7886C59.3722 17.7886 58.66 18.0996 58.0407 18.7216C57.4524 19.3124 57.1427 20.0899 57.1427 20.9918C57.1427 21.8936 57.4524 22.6711 58.0407 23.2931Z" fill="#152551"/>
<path fill-rule="evenodd" clip-rule="evenodd" d="M76.0631 17.4154V15.9849H78.1997V25.9676H76.0631V24.537C75.258 25.6566 74.0814 26.2475 72.595 26.2475C71.2326 26.2475 70.0559 25.7499 69.096 24.7236C68.1361 23.7285 67.6406 22.4534 67.6406 20.9918C67.6406 19.5301 68.1361 18.2551 69.096 17.2599C70.0559 16.2337 71.2326 15.7361 72.595 15.7361C74.1123 15.7361 75.258 16.2959 76.0631 17.4154ZM70.6752 23.2931C71.2635 23.884 72.0067 24.1949 72.9357 24.1949C73.8646 24.1949 74.5768 23.884 75.1961 23.2931C75.7845 22.6711 76.0941 21.9247 76.0941 20.9918C76.0941 20.0588 75.7845 19.3124 75.1961 18.7216C74.6078 18.0996 73.8646 17.7886 72.9357 17.7886C72.0067 17.7886 71.2945 18.0996 70.6752 18.7216C70.0869 19.3124 69.7772 20.0899 69.7772 20.9918C69.7772 21.8936 70.0869 22.6711 70.6752 23.2931Z" fill="#152551"/>
<path fill-rule="evenodd" clip-rule="evenodd" d="M86.652 20.8985C87.7048 21.365 88.2312 22.1735 88.2312 23.262C88.2312 24.1327 87.8906 24.848 87.1784 25.4078C86.4662 25.9676 85.5063 26.2475 84.2986 26.2475C82.2859 26.2475 80.9544 25.4389 80.2422 23.8529L82.0072 22.8266C82.3788 23.8218 83.1529 24.3193 84.3296 24.3193C84.887 24.3193 85.3205 24.1949 85.6301 23.9773C85.9398 23.7285 86.0946 23.4175 86.0946 23.0443C86.0946 22.7022 85.9707 22.4223 85.723 22.2046C85.4753 22.018 85.1347 21.8936 84.6702 21.8936H83.2458V19.9966H84.2986C84.7321 19.9966 85.0727 19.9033 85.3205 19.6856C85.5682 19.4679 85.6921 19.188 85.6921 18.846C85.6921 18.5039 85.5682 18.224 85.2895 18.0063C85.0108 17.7886 84.6392 17.6642 84.1748 17.6642C83.1839 17.6642 82.5026 18.0996 82.1001 18.9704L80.3351 17.9752C81.0782 16.4825 82.3169 15.7361 84.1128 15.7361C85.2276 15.7361 86.0946 16.016 86.7449 16.6068C87.3951 17.1666 87.7358 17.8508 87.7358 18.6594C87.7358 19.6545 87.3642 20.4009 86.59 20.8674" fill="#152551"/>
<path fill-rule="evenodd" clip-rule="evenodd" d="M92.6291 22.361L97.7073 16.0168H99.3795V25.9995H97.2738V19.6554L92.1646 25.9995H90.5234V16.0168H92.6291V22.361Z" fill="#152551"/>
<path fill-rule="evenodd" clip-rule="evenodd" d="M105.479 16.0168H109.907V25.9995H107.802V22.6409H106.594L104.055 25.9995H101.516L104.21 22.4543C103.528 22.2366 102.971 21.8323 102.537 21.2414C102.135 20.6817 101.918 20.0286 101.918 19.3133C101.918 18.3804 102.228 17.6029 102.878 16.9809C103.528 16.3278 104.364 16.0168 105.417 16.0168M105.603 20.775H107.802V17.945H105.603C105.139 17.945 104.798 18.0694 104.488 18.3493C104.21 18.598 104.055 18.9401 104.055 19.3755C104.055 19.8109 104.21 20.153 104.488 20.4018C104.767 20.6506 105.139 20.775 105.603 20.775Z" fill="#152551"/>
<path fill-rule="evenodd" clip-rule="evenodd" d="M1.59179 26.8371C-0.978316 24.1004 4.13093 21.3015 10.6955 19.2801C-3.85807 25.4376 3.54259 29.325 15.1855 28.1743C12.027 28.703 4.8741 29.3872 1.80855 27.0859C1.74662 27.0237 1.65372 26.9304 1.59179 26.8682" fill="#152551"/>
<path fill-rule="evenodd" clip-rule="evenodd" d="M1.62109 19.4987C1.62109 19.4987 8.55728 8.08546 29.7684 5.75305C29.0252 6.90371 28.344 8.11656 27.7557 9.36051C21.8413 10.1069 9.57913 12.4393 1.62109 19.5298" fill="#152551"/>
<path fill-rule="evenodd" clip-rule="evenodd" d="M5.14844 13.8702C5.14844 13.8702 12.9516 1.67945 34.3795 0.00012207C33.3267 1.08858 32.3358 2.20813 31.4069 3.42098C27.0408 3.70087 14.0354 5.22471 5.14844 13.8702Z" fill="#152551"/>
<path fill-rule="evenodd" clip-rule="evenodd" d="M26.5169 12.2219C14.6262 14.15 -6.6468 21.4582 2.02344 27.2115C-3.70511 22.329 15.9887 17.1044 25.2783 16.1714C25.6189 14.8342 26.0214 13.528 26.5169 12.253" fill="#152551"/>
</svg>
