<svg width="28" height="28" viewBox="0 0 28 28" fill="none" xmlns="http://www.w3.org/2000/svg">
<path fill-rule="evenodd" clip-rule="evenodd" d="M10.8065 6.99369L13.9862 3.81396L17.1659 6.99369L13.9862 10.1734L10.8065 6.99369ZM20.9802 10.808L24.1599 13.9877L20.9802 17.1674L17.8005 13.9877L20.9802 10.808ZM10.8065 20.9818L13.9862 24.1615L17.1659 20.9818L13.9862 17.8021L10.8065 20.9818ZM6.99219 10.808L3.8125 13.9877L6.99219 17.1674L10.1719 13.9877L6.99219 10.808Z" fill="#152551"/>
<path fill-rule="evenodd" clip-rule="evenodd" d="M26.3841 5.4042L27.9739 6.99406L24.1596 10.8084L22.5697 9.21854L20.9799 10.8084L17.1656 6.99406L18.7554 5.4042L17.1656 3.81434L20.9799 0L22.5697 1.58986L24.1596 0L27.9739 3.81434L26.3841 5.4042ZM10.1715 13.9881L13.9859 17.8025L17.8002 13.9881L13.9859 10.1737L10.1715 13.9881ZM9.2185 22.5698L10.8083 24.1597L6.99402 27.974L5.40417 26.3841L3.81433 27.974L0 24.1597L1.58985 22.5698L0 20.9799L3.81433 17.1656L5.40417 18.7555L6.99402 17.1656L10.8083 20.9799L9.2185 22.5698ZM9.2185 5.4042L10.8083 6.99406L6.99402 10.8084L5.40417 9.21854L3.81433 10.8084L0 6.99406L1.58985 5.4042L0 3.81434L3.81433 0L5.40417 1.58986L6.99402 0L10.8083 3.81434L9.2185 5.4042ZM26.3841 22.5698L27.9739 24.1597L24.1596 27.974L22.5697 26.3841L20.9799 27.974L17.1656 24.1597L18.7554 22.5698L17.1656 20.9799L20.9799 17.1656L22.5697 18.7555L24.1596 17.1656L27.9739 20.9799L26.3841 22.5698Z" fill="#C5985E"/>
</svg>
