<svg width="81" height="54" viewBox="0 0 81 54" fill="none" xmlns="http://www.w3.org/2000/svg">
<path d="M0 26.9466C0 9.17296 9.83851 0 20.2546 0C30.6706 0 40.2202 8.45644 40.2202 25.73C40.2202 44.0062 30.3818 53.1791 20.4001 53.1791C9.54968 53.1791 0.00242922 44.6506 0.00242922 26.949L0 26.9466ZM20.7593 52.3159C26.1129 52.3159 32.0442 46.0812 32.0442 27.7329C32.0442 8.30977 25.8242 0.786254 19.893 0.786254C13.9617 0.786254 8.17368 7.02098 8.17368 25.2972C8.17368 44.79 14.6849 52.3159 20.7593 52.3159Z" fill="url(#paint0_linear_532_2498)"/>
<path d="M44.9184 30.2429C44.9184 11.0361 57.9385 0.285868 76.1666 0.141602V0.71386C61.4817 1.43038 52.9465 10.173 52.9465 29.6682C52.9465 43.8592 57.9385 52.3157 64.0857 52.3157C69.1481 52.3157 73.0554 47.4419 73.0554 38.555C73.0554 28.2351 67.9202 24.364 63.1441 24.364C61.0473 24.364 59.2369 25.0084 57.5745 25.9413L57.5017 25.4388C60.2513 23.6475 63.6513 21.784 67.7745 21.784C74.7178 21.784 80.8674 26.6578 80.8674 36.0472C80.8674 46.5113 73.201 53.1765 63.7241 53.1765C53.1625 53.1765 44.916 45.7227 44.916 30.2429H44.9184Z" fill="url(#paint1_linear_532_2498)"/>
<defs>
<linearGradient id="paint0_linear_532_2498" x1="-37.1017" y1="26.5884" x2="79.1397" y2="26.5884" gradientUnits="userSpaceOnUse">
<stop stop-color="#EAC781"/>
<stop offset="1" stop-color="#A87242"/>
</linearGradient>
<linearGradient id="paint1_linear_532_2498" x1="-37.102" y1="26.6602" x2="79.1395" y2="26.6602" gradientUnits="userSpaceOnUse">
<stop stop-color="#EAC781"/>
<stop offset="1" stop-color="#A87242"/>
</linearGradient>
</defs>
</svg>
