<svg width="77" height="56" viewBox="0 0 77 56" fill="none" xmlns="http://www.w3.org/2000/svg">
<path d="M0 26.7185C0 9.09661 9.75447 0.00195312 20.0816 0.00195312C30.4087 0.00195312 39.8769 8.3862 39.8769 25.5123C39.8769 43.6325 30.1224 52.7271 20.226 52.7271C9.46815 52.7271 0.00240848 44.2713 0.00240848 26.7209L0 26.7185ZM20.5845 51.8737C25.8924 51.8737 31.773 45.6922 31.773 27.5005C31.773 8.24316 25.6061 0.783879 19.7231 0.783879C13.8401 0.783879 8.10387 6.96538 8.10387 25.0856C8.10387 44.412 14.5595 51.8737 20.5821 51.8737H20.5845Z" fill="url(#paint0_linear_532_2484)"/>
<path d="M72.9379 51.6595H42.457V51.588L47.2621 46.8273C61.2465 32.9005 66.6267 25.2266 66.6267 16.9115C66.6267 9.09465 62.0358 5.18741 55.5103 5.18741C48.9849 5.18741 44.6803 9.44986 43.9633 17.4098H43.4604C44.1052 6.67974 50.7029 0 60.171 0C67.9885 0 73.7248 4.83221 73.7248 12.363C73.7248 19.4695 68.2749 27.3555 54.9353 40.3598L50.1302 45.0489V45.192H74.1555L76.5929 40.9987H76.9514L73.5082 55.4238H73.1497L72.9356 51.6572L72.9379 51.6595Z" fill="url(#paint1_linear_532_2484)"/>
<defs>
<linearGradient id="paint0_linear_532_2484" x1="-36.2388" y1="26.3633" x2="75.6296" y2="26.3633" gradientUnits="userSpaceOnUse">
<stop stop-color="#EAC781"/>
<stop offset="1" stop-color="#A87242"/>
</linearGradient>
<linearGradient id="paint1_linear_532_2484" x1="-36.238" y1="27.7131" x2="75.6304" y2="27.7131" gradientUnits="userSpaceOnUse">
<stop stop-color="#EAC781"/>
<stop offset="1" stop-color="#A87242"/>
</linearGradient>
</defs>
</svg>
