<svg width="78" height="54" viewBox="0 0 78 54" fill="none" xmlns="http://www.w3.org/2000/svg">
<path d="M0 26.9518C0 9.17809 9.83848 0.00512695 20.2545 0.00512695C30.6706 0.00512695 40.2203 8.46157 40.2203 25.7351C40.2203 44.0113 30.3818 53.1843 20.4001 53.1843C9.54968 53.1843 0.00242922 44.6557 0.00242922 26.9542L0 26.9518ZM20.7593 52.3211C26.1129 52.3211 32.0442 46.0863 32.0442 27.738C32.0442 8.31489 25.8242 0.791381 19.8905 0.791381C13.9568 0.791381 8.17122 7.02611 8.17122 25.3023C8.17122 44.7952 14.6825 52.3211 20.7569 52.3211H20.7593Z" fill="url(#paint0_linear_532_2475)"/>
<path d="M44.123 45.9442C44.123 43.9364 45.3535 42.3615 46.7271 41.4286C49.9087 47.8076 53.5999 52.3929 59.4583 52.3929C65.3167 52.3929 69.5128 47.9495 69.5128 40.4235C69.5128 31.3227 63.2928 27.0212 54.6847 27.0212H52.7311V26.5908C61.7735 23.9387 66.1856 19.7117 66.1856 14.0492C66.1856 8.38671 62.208 5.01808 56.3471 5.01808C51.1391 5.01808 46.7999 8.10058 45.6423 15.9824H45.2807C45.9311 5.7346 52.0807 0 60.7615 0C68.3576 0 73.0584 4.65741 73.0584 10.606C73.0584 16.5546 67.9232 21.0702 61.8464 23.1476V23.2919C68.0664 23.5059 77.1816 27.8796 77.1816 37.8412C77.1816 46.4419 70.2384 53.1791 57.7959 53.1791C48.3919 53.1791 44.1255 49.6686 44.1255 45.9418L44.123 45.9442Z" fill="url(#paint1_linear_532_2475)"/>
<defs>
<linearGradient id="paint0_linear_532_2475" x1="-37.4269" y1="26.5935" x2="73.8856" y2="26.5935" gradientUnits="userSpaceOnUse">
<stop stop-color="#EAC781"/>
<stop offset="1" stop-color="#A87242"/>
</linearGradient>
<linearGradient id="paint1_linear_532_2475" x1="-270.977" y1="-3.0777" x2="73.886" y2="-3.0777" gradientUnits="userSpaceOnUse">
<stop stop-color="#EAC781"/>
<stop offset="1" stop-color="#A87242"/>
</linearGradient>
</defs>
</svg>
