<svg width="82" height="54" viewBox="0 0 82 54" fill="none" xmlns="http://www.w3.org/2000/svg">
<path d="M0 27.0189C0 9.24523 9.83845 0.0722656 20.2545 0.0722656C30.6706 0.0722656 40.2202 8.5287 40.2202 25.8022C40.2202 44.0784 30.3818 53.2514 20.4001 53.2514C9.54965 53.2514 0.00242922 44.7228 0.00242922 27.0213L0 27.0189ZM20.7617 52.3882C26.1153 52.3882 32.0466 46.1535 32.0466 27.8051C32.0466 8.38203 25.8266 0.85852 19.8929 0.85852C13.9592 0.85852 8.17362 7.09325 8.17362 25.3694C8.17362 44.8623 14.6849 52.3882 20.7593 52.3882H20.7617Z" fill="url(#paint0_linear_532_2478)"/>
<path d="M65.9676 37.6969H41.5898V37.4829L73.1292 0H73.4908V33.2535H81.23V37.6969H73.4908V52.1741H65.9676V37.6969ZM65.9676 33.2535V9.67549L47.0163 33.3256L65.9676 33.2535Z" fill="url(#paint1_linear_532_2478)"/>
<defs>
<linearGradient id="paint0_linear_532_2478" x1="-37.4779" y1="-3.01023" x2="77.8631" y2="-3.01023" gradientUnits="userSpaceOnUse">
<stop stop-color="#EAC781"/>
<stop offset="1" stop-color="#A87242"/>
</linearGradient>
<linearGradient id="paint1_linear_532_2478" x1="-37.4794" y1="26.0858" x2="77.8616" y2="26.0858" gradientUnits="userSpaceOnUse">
<stop stop-color="#EAC781"/>
<stop offset="1" stop-color="#A87242"/>
</linearGradient>
</defs>
</svg>
